<svg width="198" height="48" viewBox="0 0 198 48" fill="none" xmlns="http://www.w3.org/2000/svg">
<g clip-path="url(#clip0_23_591)">
<path d="M0.791992 37.1401V0.550293H7.90868V13.6093C9.10529 11.6997 12.0023 10.0365 15.9701 10.0365C23.7795 10.0365 28.3141 16.0116 28.3141 23.8347C28.3141 31.8426 23.3387 37.8177 15.7181 37.8177C12.0024 37.8177 9.23125 36.2161 7.78272 33.9369V37.1401H0.791992ZM14.4586 16.3812C10.8057 16.3812 7.78272 19.03 7.78272 23.8347C7.78272 28.6394 10.8057 31.3498 14.4586 31.3498C18.1743 31.3498 21.0714 28.6394 21.0714 23.8347C21.0714 19.03 18.1743 16.3812 14.4586 16.3812Z" fill="#71717A"/>
<path d="M38.2019 21.8634L44.7518 20.8778C46.2633 20.6931 46.7671 19.8923 46.7671 18.9683C46.7671 17.0587 45.3186 15.5187 42.2326 15.5187C39.0836 15.5187 37.3202 17.4899 37.1312 19.8307L30.7073 18.4755C31.1482 14.3484 34.9899 9.79004 42.1696 9.79004C50.6089 9.79004 53.7578 14.5332 53.7578 19.8307V32.828C53.7578 34.2448 53.9468 36.0928 54.0727 37.0168H47.4599C47.2709 36.3392 47.208 34.8608 47.208 33.8136C45.8224 35.908 43.3032 37.756 39.3355 37.756C33.6674 37.756 30.1405 33.9368 30.1405 29.8097C30.2035 25.1282 33.7303 22.4794 38.2019 21.8634ZM46.7671 26.3602V25.1898L40.7211 26.1138C38.8947 26.3602 37.3831 27.4073 37.3831 29.4401C37.3831 30.9801 38.5168 32.5201 40.847 32.5201C43.933 32.5201 46.7671 31.0417 46.7671 26.3602Z" fill="#71717A"/>
<path d="M64.1494 37.2017H56.9067V10.1597H63.8975V13.9173C65.5349 11.1453 68.7469 9.91333 71.581 9.91333C78.1938 9.91333 81.2168 14.5949 81.2168 20.4468V37.2633H73.9742V21.6787C73.9742 18.722 72.5257 16.3812 69.0618 16.3812C65.9128 16.3812 64.0864 18.8452 64.0864 21.9251V37.2017H64.1494Z" fill="#71717A"/>
<path d="M100.552 17.7981C99.7328 17.6133 99.0401 17.5517 98.4103 17.5517C94.6945 17.5517 91.5455 19.3381 91.5455 25.0668V37.2634H84.3029V10.2214H91.2936V14.4102C92.9311 10.899 96.5839 10.2214 98.9141 10.2214C99.4809 10.2214 100.048 10.283 100.615 10.3446V17.7981H100.552Z" fill="#71717A"/>
<path d="M127.129 29.2553C125.743 33.752 121.524 37.5096 114.974 37.5096C107.668 37.5096 101.181 32.3353 101.181 23.5266C101.181 15.2107 107.479 9.79004 114.344 9.79004C122.594 9.79004 127.507 14.9643 127.507 23.3418C127.507 24.3274 127.381 25.4362 127.381 25.4978H108.298C108.487 28.9473 111.447 31.4729 115.037 31.4729C118.375 31.4729 120.264 29.8097 121.146 27.4689L127.129 29.2553ZM120.39 20.6931C120.264 18.1059 118.564 15.5187 114.407 15.5187C110.691 15.5187 108.613 18.2907 108.424 20.6931H120.39Z" fill="#71717A"/>
<path d="M136.072 36.4625C136.576 39.3576 138.906 41.3904 142.307 41.3904C146.842 41.3904 149.424 39.1728 149.424 34.1217V32.2122C148.353 33.9369 145.834 35.5385 141.992 35.5385C134.875 35.5385 129.585 30.1794 129.585 22.8491C129.585 15.95 134.687 10.0981 141.992 10.0981C146.212 10.0981 148.668 11.8845 149.613 13.6709V10.0981H156.54V33.8753C156.54 41.0208 152.573 47.5503 142.559 47.5503C135.253 47.5503 130.341 43.1152 129.585 38.1257L136.072 36.4625ZM149.55 22.8491C149.55 18.8452 146.716 16.258 143.252 16.258C139.662 16.258 136.828 18.7836 136.828 22.8491C136.828 26.9147 139.473 29.5018 143.252 29.5018C146.968 29.5018 149.55 26.9147 149.55 22.8491Z" fill="#71717A"/>
<path d="M159.941 37.2632V10.1597H167.184V37.3248H159.941V37.2632Z" fill="#71717A"/>
<path d="M197.792 23.6498C197.792 31.6577 191.746 37.5096 183.811 37.5096C175.812 37.5096 169.829 31.6577 169.829 23.6498C169.829 15.5803 175.875 9.79004 183.811 9.79004C191.746 9.79004 197.792 15.5803 197.792 23.6498ZM190.549 23.6498C190.549 18.7219 187.274 16.1963 183.748 16.1963C180.221 16.1963 176.946 18.7219 176.946 23.6498C176.946 28.5161 180.221 31.1033 183.748 31.1033C187.337 31.1033 190.549 28.5777 190.549 23.6498Z" fill="#71717A"/>
</g>
<defs>
<clipPath id="clip0_23_591">
<rect width="197" height="47" fill="white" transform="translate(0.791992 0.550293)"/>
</clipPath>
</defs>
</svg>
