<svg width="167" height="77" viewBox="0 0 167 77" fill="none" xmlns="http://www.w3.org/2000/svg">
<path d="M163.054 14.7744C161.865 8.69113 160.281 4.06929 160.054 3.81805C159.97 3.72614 159.865 3.65567 159.745 3.61737L148.456 0.0326385C148.217 -0.0424194 147.957 0.014267 147.77 0.182777C141.513 5.83714 131.455 8.47054 116.112 8.47054C103.788 8.47207 89.5457 6.72872 75.7736 5.04513C62.2267 3.38757 48.2172 1.67488 36.2803 1.67488C35.7181 1.67488 35.1605 1.67947 34.6059 1.6856C25.3347 1.81429 17.8466 4.32972 12.3515 9.16297C6.14719 14.6228 2.26067 23.2215 0.800741 34.7218C-1.66567 54.162 4.33798 73.6513 4.72403 74.0894C4.8282 74.2074 4.96913 74.2886 5.12539 74.3161L14.7475 76.0886C14.7888 76.0962 14.8317 76.1008 14.8746 76.1008C15.0477 76.1008 15.2162 76.0365 15.348 75.9185C21.7453 70.1355 32.4949 67.4423 49.1731 67.4423C61.1804 67.4423 74.8774 68.8548 88.124 70.2182C101.077 71.554 114.469 72.9343 125.96 72.9343H125.964C127.884 72.9343 129.739 72.896 131.475 72.8194C140.786 72.4104 147.879 70.0405 153.159 65.5718C159.478 60.2239 163.132 52.028 164.329 40.514C165.407 30.1413 164.231 20.7919 163.054 14.7744Z" fill="#71717A"/>
<path d="M158.483 6.72708C158.483 6.72708 173.192 52.7449 146.819 66.8141C120.146 81.0427 39.9677 50.1406 6.84265 72.084C6.92844 71.007 -7.8394 23.9476 18.2632 8.03688C43.5294 -7.36518 117.726 27.1432 158.483 6.72708Z" fill="white"/>
<path d="M32.567 49.3349H26.1083V30.5243H31.6769C35.1238 30.5243 35.5879 31.9597 35.5879 33.366C35.5879 35.3361 34.4436 36.3349 32.1855 36.3349H30.2997L27.5591 42.2788H32.6941C35.5083 42.2788 36.8196 43.4538 36.8196 45.9784C36.8196 47.4184 36.3784 49.3349 32.567 49.3349ZM40.1699 38.4643C42.3223 36.9982 43.3732 34.9378 43.3732 32.2063C43.3732 26.7189 39.8942 23.9369 33.0342 23.9369H18.1132V55.9207H33.457C38.6962 55.9207 44.8148 53.4175 44.8148 46.3644C44.8148 42.6036 43.1787 39.8476 40.1699 38.4643Z" fill="#71717A"/>
<path d="M46.6914 55.9205H54.6866V23.9368H46.6914V55.9205Z" fill="#71717A"/>
<path d="M74.0073 42.0794L70.0626 23.8709H57.3536V55.8561H65.3488V36.3086L70.0626 55.8806H78.0593L82.7608 36.1187V55.8806H90.7682V23.8709H78.0593L74.0073 42.0794Z" fill="#71717A"/>
<path d="M108.093 49.5216H101.636V30.711H107.203C110.65 30.711 111.114 32.1464 111.114 33.5528C111.114 35.5228 109.969 36.5216 107.711 36.5216H105.826L103.085 42.4655H108.22C111.034 42.4655 112.345 43.6405 112.345 46.1652C112.345 47.6052 111.904 49.5216 108.093 49.5216ZM115.696 38.651C117.848 37.185 118.899 35.1245 118.899 32.3931C118.899 26.9057 115.42 24.1237 108.56 24.1237H93.639V56.1074H108.983C114.222 56.1074 120.341 53.6042 120.341 46.5512C120.341 42.7903 118.705 40.0344 115.696 38.651Z" fill="#71717A"/>
<path d="M137.463 48.1246C132.893 48.1246 129.034 44.2641 129.034 39.6959C129.034 35.1047 132.893 31.2243 137.463 31.2243C142.065 31.2243 145.809 35.025 145.809 39.6959C145.809 44.3422 142.065 48.1246 137.463 48.1246ZM137.463 23.6182C128.621 23.6182 121.427 30.8306 121.427 39.6959C121.427 48.5382 128.621 55.7322 137.463 55.7322C146.328 55.7322 153.541 48.5382 153.541 39.6959C153.541 30.8306 146.328 23.6182 137.463 23.6182Z" fill="#71717A"/>
<path d="M28.4445 19.9692C27.7521 20.3139 27.0275 20.5636 26.2753 20.7153C25.5216 20.8685 24.7525 20.9451 23.9697 20.9451C23.1363 20.9451 22.3673 20.821 21.6657 20.5713C20.961 20.3231 20.3543 19.9662 19.8411 19.502C19.3295 19.0393 18.9296 18.4771 18.6447 17.8169C18.3567 17.1581 18.2142 16.4213 18.2142 15.6078C18.2142 14.7944 18.3567 14.0575 18.6447 13.3972C18.9296 12.737 19.3295 12.1763 19.8411 11.7121C20.3543 11.2479 20.961 10.8925 21.6657 10.6428C22.3673 10.3946 23.1363 10.269 23.9697 10.269C24.823 10.269 25.6089 10.3671 26.3274 10.5632C27.0458 10.7592 27.677 11.0978 28.2178 11.5758L26.5617 13.2977C26.24 12.9821 25.8785 12.7431 25.4771 12.5792C25.0742 12.4168 24.5718 12.3356 23.9697 12.3356C23.4672 12.3356 23.0138 12.4168 22.6063 12.5792C22.2003 12.7431 21.851 12.9698 21.5584 13.2624C21.2674 13.5535 21.0437 13.8997 20.889 14.3026C20.7327 14.704 20.6546 15.139 20.6546 15.6078C20.6546 16.0858 20.7327 16.5239 20.889 16.9207C21.0437 17.3174 21.2674 17.6621 21.5584 17.9532C21.851 18.2458 22.2003 18.4725 22.6063 18.6349C23.0138 18.7973 23.4672 18.88 23.9697 18.88C24.4814 18.88 24.9241 18.8249 25.2964 18.713C25.6671 18.6043 25.9628 18.4909 26.1849 18.3775V16.7261H24.2715V14.6611H28.4445V19.9692Z" fill="#71717A"/>
<path d="M32.256 14.7314H33.6424C33.8523 14.7314 34.0759 14.7237 34.3118 14.71C34.5478 14.6962 34.7622 14.6533 34.9522 14.5813C35.1437 14.5093 35.3015 14.3974 35.4271 14.2443C35.5527 14.0911 35.6155 13.8751 35.6155 13.5978C35.6155 13.3389 35.5604 13.1336 35.4501 12.9819C35.3398 12.8287 35.1988 12.7108 35.0273 12.6296C34.8572 12.5484 34.6611 12.4933 34.4405 12.4641C34.2199 12.4366 34.0039 12.4213 33.7925 12.4213H32.256V14.7314ZM29.906 10.5278H34.033C34.5753 10.5278 35.0901 10.5783 35.5788 10.6779C36.0644 10.7775 36.4918 10.946 36.8579 11.1804C37.2256 11.4148 37.5167 11.7303 37.7327 12.1271C37.9487 12.5239 38.0559 13.0187 38.0559 13.6131C38.0559 14.33 37.8613 14.9398 37.4692 15.4422C37.077 15.9432 36.504 16.2618 35.7519 16.3951L38.4619 20.686H35.6462L33.4157 16.6264H32.256V20.686H29.906V10.5278Z" fill="#71717A"/>
<path d="M48.0609 16.769C48.0609 17.3726 47.966 17.9256 47.7745 18.4327C47.583 18.9398 47.2996 19.381 46.9227 19.7532C46.5459 20.1255 46.0771 20.4181 45.5149 20.6295C44.9527 20.8394 44.3046 20.9451 43.5708 20.9451C42.8279 20.9451 42.1753 20.8394 41.6115 20.6295C41.0493 20.4181 40.5805 20.1255 40.2037 19.7532C39.8283 19.381 39.5434 18.9398 39.3519 18.4327C39.1619 17.9256 39.0654 17.3726 39.0654 16.769V10.5279H41.4169V16.6832C41.4169 16.9988 41.469 17.2914 41.5747 17.558C41.6804 17.8261 41.829 18.0574 42.019 18.2535C42.2105 18.4511 42.4387 18.6043 42.7053 18.713C42.9703 18.8233 43.2599 18.8785 43.5708 18.8785C43.8818 18.8785 44.1683 18.8233 44.4303 18.713C44.6907 18.6043 44.9174 18.4511 45.1089 18.2535C45.2989 18.0574 45.4475 17.8261 45.5516 17.558C45.6573 17.2914 45.711 16.9988 45.711 16.6832V10.5279H48.0609V16.769Z" fill="#71717A"/>
<path d="M51.978 14.8325H53.5452C53.7551 14.8325 53.9588 14.8141 54.1549 14.7743C54.351 14.7375 54.5256 14.6717 54.6819 14.5813C54.8382 14.4909 54.9638 14.3653 55.0588 14.209C55.1537 14.0512 55.2028 13.8521 55.2028 13.6116C55.2028 13.3542 55.14 13.1459 55.0128 12.9881C54.8887 12.8318 54.7279 12.7093 54.5318 12.6235C54.3357 12.5361 54.1182 12.481 53.8761 12.458C53.6356 12.4335 53.4043 12.4228 53.1837 12.4228H51.978V14.8325ZM49.6281 10.5278H53.5896C54.1427 10.5278 54.6651 10.5753 55.1568 10.6718C55.6486 10.7668 56.0775 10.9322 56.4452 11.1666C56.8113 11.401 57.1024 11.7166 57.3199 12.1133C57.5344 12.5101 57.6431 13.0095 57.6431 13.6116C57.6431 14.206 57.542 14.7023 57.3413 15.1052C57.1407 15.5066 56.8634 15.8283 56.5126 16.0673C56.1618 16.3062 55.7451 16.4747 55.2625 16.5759C54.7815 16.6754 54.2576 16.726 53.6953 16.726H51.978V20.686H49.6281V10.5278Z" fill="#71717A"/>
<path d="M60.9614 15.6061C60.9614 16.0841 61.0395 16.5222 61.1942 16.919C61.3505 17.3157 61.5741 17.6604 61.8652 17.9515C62.1563 18.2441 62.5056 18.4708 62.9131 18.6332C63.319 18.7971 63.774 18.8783 64.2765 18.8783C64.7774 18.8783 65.2324 18.7971 65.6384 18.6332C66.0459 18.4708 66.3951 18.2441 66.6862 17.9515C66.9773 17.6604 67.2009 17.3157 67.3572 16.919C67.5119 16.5222 67.59 16.0841 67.59 15.6061C67.59 15.1373 67.5119 14.7023 67.3572 14.3009C67.2009 13.8995 66.9773 13.5518 66.6862 13.2607C66.3951 12.9681 66.0459 12.7414 65.6384 12.579C65.2324 12.4166 64.7774 12.3339 64.2765 12.3339C63.774 12.3339 63.319 12.4166 62.9131 12.579C62.5056 12.7414 62.1563 12.9681 61.8652 13.2607C61.5741 13.5518 61.3505 13.8995 61.1942 14.3009C61.0395 14.7023 60.9614 15.1373 60.9614 15.6061ZM58.521 15.6061C58.521 14.7926 58.665 14.0558 58.9499 13.3971C59.2364 12.7368 59.6362 12.1746 60.1479 11.7104C60.6596 11.2462 61.2678 10.8908 61.9709 10.6411C62.6741 10.3929 63.4431 10.2673 64.2765 10.2673C65.1098 10.2673 65.8789 10.3929 66.582 10.6411C67.2837 10.8908 67.8918 11.2462 68.405 11.7104C68.9152 12.1746 69.3165 12.7368 69.6015 13.3971C69.8879 14.0558 70.0319 14.7926 70.0319 15.6061C70.0319 16.4196 69.8879 17.1564 69.6015 17.8152C69.3165 18.4754 68.9152 19.0376 68.405 19.5018C67.8918 19.966 67.2837 20.3214 66.582 20.5711C65.8789 20.8193 65.1098 20.9434 64.2765 20.9434C63.4431 20.9434 62.6741 20.8193 61.9709 20.5711C61.2678 20.3214 60.6596 19.966 60.1479 19.5018C59.6362 19.0376 59.2364 18.4754 58.9499 17.8152C58.665 17.1564 58.521 16.4196 58.521 15.6061Z" fill="#71717A"/>
<path d="M161.737 67.8589H162.561C162.725 67.8589 162.884 67.8527 163.039 67.842C163.195 67.8313 163.334 67.7991 163.457 67.747C163.579 67.6949 163.676 67.6168 163.746 67.5142C163.817 67.41 163.852 67.2614 163.852 67.0684C163.852 66.9045 163.82 66.7727 163.759 66.6731C163.694 66.572 163.612 66.497 163.507 66.4434C163.403 66.3928 163.285 66.3591 163.157 66.3438C163.026 66.3285 162.898 66.3223 162.772 66.3223H161.737V67.8589ZM161.069 65.7203H162.827C163.408 65.7203 163.834 65.8306 164.108 66.0496C164.382 66.2687 164.52 66.6195 164.52 67.1006C164.52 67.5326 164.398 67.8481 164.152 68.0488C163.907 68.248 163.607 68.3675 163.252 68.4042L164.632 70.5198H163.907L162.594 68.4594H161.737V70.5198H161.069V65.7203ZM159.109 68.1147C159.109 68.6126 159.2 69.0737 159.38 69.5011C159.563 69.9285 159.814 70.2992 160.133 70.6148C160.453 70.9304 160.824 71.1786 161.246 71.3609C161.671 71.5432 162.126 71.6335 162.616 71.6335C163.106 71.6335 163.563 71.5432 163.985 71.3609C164.408 71.1786 164.78 70.9289 165.099 70.6102C165.418 70.29 165.669 69.9132 165.851 69.4796C166.034 69.0446 166.124 68.5758 166.124 68.0703C166.124 67.5724 166.034 67.1097 165.851 66.6777C165.669 66.2473 165.418 65.875 165.099 65.5594C164.78 65.2438 164.408 64.9972 163.985 64.8195C163.563 64.6403 163.106 64.5514 162.616 64.5514C162.126 64.5514 161.671 64.6418 161.246 64.8241C160.824 65.0064 160.453 65.2546 160.133 65.5702C159.814 65.8857 159.563 66.2611 159.38 66.6946C159.2 67.1297 159.109 67.603 159.109 68.1147ZM158.44 68.1147C158.44 67.5203 158.552 66.9703 158.774 66.4617C158.997 65.9531 159.298 65.5135 159.676 65.1412C160.054 64.7705 160.497 64.4794 161.001 64.268C161.507 64.0551 162.044 63.9494 162.616 63.9494C163.181 63.9494 163.717 64.0551 164.226 64.268C164.733 64.4794 165.177 64.7689 165.556 65.1366C165.936 65.5027 166.236 65.9378 166.458 66.4388C166.68 66.9397 166.792 67.4835 166.792 68.0703C166.792 68.6647 166.68 69.2146 166.458 69.7248C166.236 70.2334 165.936 70.673 165.556 71.0438C165.177 71.4145 164.733 71.7055 164.226 71.9185C163.717 72.1299 163.181 72.2356 162.616 72.2356C162.044 72.2356 161.507 72.1299 161.001 71.9185C160.497 71.7055 160.054 71.4175 159.676 71.0483C159.298 70.6822 158.997 70.2471 158.774 69.7462C158.552 69.2453 158.44 68.7014 158.44 68.1147Z" fill="#71717A"/>
</svg>
