<svg width="215" height="39" viewBox="0 0 215 39" fill="none" xmlns="http://www.w3.org/2000/svg">
<path d="M0.228735 37.8127C7.93666 27.9415 15.4464 17.9182 23.0859 7.99751C25.2239 5.22094 26.7987 3.45434 27.8101 2.69774C32.0442 -0.466565 37.6188 -0.0104768 43.0746 0.205191C43.2163 0.212262 43.2451 0.271188 43.161 0.381968C34.8994 11.1983 26.6281 21.9982 18.3472 32.7816C13.5942 38.9688 7.48622 38.0177 0.308013 37.9718C0.289275 37.9716 0.270948 37.9663 0.255095 37.9565C0.239243 37.9467 0.226491 37.9328 0.218261 37.9163C0.21003 37.8998 0.206651 37.8813 0.208501 37.863C0.210351 37.8447 0.217357 37.8273 0.228735 37.8127Z" fill="#71717A"/>
<path d="M43.1644 5.2313C47.7753 -0.777298 54.4772 0.0573293 61.0926 0.12806C61.1143 0.128047 61.1356 0.134057 61.154 0.145404C61.1724 0.156751 61.1872 0.172969 61.1966 0.19219C61.206 0.211411 61.2097 0.232853 61.2073 0.254043C61.2048 0.275233 61.1963 0.295308 61.1827 0.311957C52.8861 11.1527 44.5511 21.9757 36.1777 32.781C31.5776 38.7189 25.3876 38.1707 18.3432 37.9019C18.199 37.8972 18.1702 37.8383 18.2567 37.7251C26.558 26.882 34.8606 16.0508 43.1644 5.2313Z" fill="#71717A"/>
<path d="M64.9726 37.7419C59.979 36.8853 56.5231 32.6583 56.2429 27.7573C55.6106 16.7791 63.6434 7.03323 75.4412 8.13562C81.7388 8.72542 85.9528 12.4152 86.2079 18.8224C86.2089 18.8516 86.2039 18.8806 86.1933 18.9079C86.1827 18.9351 86.1668 18.9599 86.1463 18.9809C86.1259 19.0019 86.1014 19.0185 86.0743 19.0299C86.0472 19.0413 86.0181 19.0471 85.9888 19.0471H78.7247C78.6193 19.0471 78.5523 18.9968 78.5235 18.8961C77.726 16.0032 75.4448 14.6867 72.4486 14.6727C67.2287 14.6481 64.2362 19.5 63.7799 24.1166C62.9967 31.9948 71.0296 33.543 75.7753 28.8246C76.1597 28.4454 76.5836 27.7889 77.0183 27.2588C77.0997 27.1628 77.2039 27.1148 77.3308 27.1148C79.7139 27.1242 82.0957 27.1253 84.4763 27.1183C84.7038 27.1183 84.7733 27.2213 84.6847 27.4273C81.3257 35.2774 73.6162 39.227 64.9726 37.7419Z" fill="#71717A"/>
<path d="M97.4516 25.7961L96.3716 31.9946C96.3665 32.0253 96.3681 32.0567 96.3761 32.0867C96.3842 32.1167 96.3986 32.1446 96.4184 32.1684C96.4381 32.1921 96.4627 32.2113 96.4905 32.2244C96.5183 32.2376 96.5485 32.2444 96.5792 32.2445H111.07C111.187 32.2445 111.235 32.3028 111.214 32.4195L110.254 37.8646C110.244 37.9169 110.216 37.9641 110.176 37.998C110.135 38.0319 110.084 38.0504 110.032 38.0503L88.326 38.0431C88.3086 38.0429 88.2915 38.0388 88.2759 38.0312C88.2602 38.0236 88.2464 38.0126 88.2354 37.999C88.2243 37.9854 88.2163 37.9696 88.2119 37.9525C88.2075 37.9355 88.2068 37.9177 88.2099 37.9003C89.5303 30.1712 90.8671 22.4421 92.2204 14.713C93.0893 9.75702 94.7533 8.06815 99.7137 8.05743C104.827 8.04791 109.938 8.04791 115.049 8.05743C115.173 8.05743 115.225 8.11932 115.203 8.2431L114.275 13.6382C114.249 13.7835 114.163 13.8561 114.018 13.8561H99.7032C99.5906 13.8561 99.5237 13.9132 99.5026 14.0274L98.5211 19.8796C98.4953 20.0296 98.5575 20.1046 98.7076 20.1046H110.208C110.337 20.1046 110.39 20.17 110.366 20.3009L109.444 25.4676C109.423 25.5818 109.355 25.639 109.24 25.639H97.6381C97.5326 25.639 97.4704 25.6913 97.4516 25.7961Z" fill="#71717A"/>
<path d="M134.446 28.7137C137.044 23.9581 139.628 19.1965 142.198 14.429C143.953 11.1707 144.799 9.17433 147.968 8.34014C149.639 7.89809 152.122 8.09415 154.061 8.09059C154.175 8.09059 154.223 8.14763 154.204 8.26171L149.127 37.872C149.109 37.9814 149.046 38.036 148.939 38.036H142.281C142.126 38.036 142.062 37.9576 142.09 37.8007L145.192 19.7016C145.246 19.3902 145.202 19.3748 145.06 19.6552L135.787 37.9184C135.767 37.9581 135.737 37.9913 135.699 38.0146C135.662 38.0379 135.619 38.0502 135.574 38.0503L129.843 38.0289C129.694 38.0289 129.607 37.954 129.582 37.8043L126.594 19.6802C126.548 19.3926 126.5 19.3926 126.451 19.6802L123.324 37.9255C123.318 37.9585 123.301 37.9883 123.275 38.0098C123.249 38.0313 123.216 38.0431 123.181 38.0432L116.398 38.0325C116.25 38.0325 116.188 37.9576 116.214 37.8079C117.511 30.2146 118.811 22.6343 120.114 15.0672C120.455 13.0969 120.826 11.7553 121.228 11.0424C123.077 7.76618 126.315 8.06207 129.637 8.09416C129.73 8.09522 129.82 8.1286 129.893 8.18883C129.965 8.24906 130.015 8.33257 130.034 8.42569L134.258 28.6816C134.295 28.8623 134.358 28.873 134.446 28.7137Z" fill="#71717A"/>
<path d="M165.702 20.1067H177.188C177.322 20.1067 177.377 20.1734 177.354 20.3066L176.463 25.4369C176.453 25.494 176.424 25.5457 176.38 25.5829C176.336 25.6201 176.281 25.6405 176.224 25.6404H164.661C164.532 25.6404 164.455 25.7059 164.432 25.8368L163.401 31.9239C163.394 31.9634 163.396 32.0039 163.406 32.0425C163.417 32.0812 163.435 32.1171 163.461 32.1477C163.486 32.1783 163.518 32.2029 163.554 32.2197C163.59 32.2366 163.629 32.2453 163.668 32.2452H178.05C178.168 32.2452 178.217 32.3047 178.198 32.4237L177.297 37.7325C177.282 37.8212 177.237 37.9018 177.169 37.9599C177.1 38.018 177.014 38.05 176.924 38.0503L155.353 38.0467C155.24 38.0467 155.193 37.9896 155.212 37.8753C156.401 30.8779 157.611 23.8899 158.84 16.9114C159.569 12.7843 159.628 9.90322 163.144 8.53585C163.981 8.20978 165.31 8.04794 167.131 8.05032C172.104 8.05746 177.073 8.05984 182.037 8.05746C182.171 8.05746 182.226 8.1241 182.203 8.25738L181.27 13.6412C181.259 13.7023 181.228 13.7577 181.181 13.7975C181.134 13.8373 181.075 13.8591 181.013 13.859H166.702C166.587 13.859 166.52 13.9161 166.501 14.0303L165.526 19.8961C165.503 20.0365 165.561 20.1067 165.702 20.1067Z" fill="#71717A"/>
<path d="M198.204 16.9309C199.663 15.0689 201.107 13.1974 202.534 11.3165C205.397 7.53568 209.613 7.97275 214.06 8.1824C214.221 8.18951 214.251 8.25584 214.149 8.38139L202.427 22.993C202.354 23.083 202.343 23.1801 202.395 23.2844L209.624 37.768C209.693 37.9054 209.65 37.9741 209.496 37.9741L201.393 37.9954C201.26 37.9954 201.165 37.9374 201.106 37.8213L196.584 28.8738C196.577 28.8591 196.566 28.8464 196.552 28.8371C196.539 28.8278 196.523 28.8221 196.507 28.8207C196.49 28.8193 196.474 28.8221 196.459 28.8289C196.444 28.8358 196.431 28.8463 196.421 28.8596C194.855 30.9419 193.292 33.0005 191.733 35.0354C188.891 38.7487 184.423 37.9919 180.309 37.9776C180.29 37.978 180.271 37.9729 180.255 37.9629C180.239 37.9529 180.226 37.9383 180.218 37.9211C180.209 37.9039 180.206 37.8846 180.209 37.8657C180.211 37.8467 180.219 37.8288 180.231 37.8142L192.208 22.7407C192.267 22.6649 192.275 22.5843 192.233 22.499L185.1 8.29966C185.091 8.28164 185.088 8.26175 185.089 8.24186C185.09 8.22198 185.096 8.20277 185.106 8.18605C185.116 8.16932 185.13 8.15564 185.147 8.14629C185.164 8.13695 185.183 8.13226 185.203 8.13265H193.413C193.469 8.13266 193.524 8.14831 193.572 8.17783C193.619 8.20735 193.658 8.24955 193.682 8.29966L197.984 16.9096C198.045 17.0327 198.118 17.0398 198.204 16.9309Z" fill="#71717A"/>
</svg>
