<svg width="81" height="94" viewBox="0 0 81 94" fill="none" xmlns="http://www.w3.org/2000/svg">
<path d="M75.1474 31.7111C72.5057 31.8059 70.3533 33.7282 69.8206 36.2269H59.1416V30.8028H67.1572C67.8167 30.8028 68.353 30.263 68.353 29.5991V25.3496C70.462 24.7988 71.9876 22.8291 71.9115 20.5493C71.868 19.2726 71.3317 18.0871 70.4004 17.2153C69.4727 16.3435 68.2624 15.8912 66.9905 15.9314C65.7222 15.9751 64.5445 16.515 63.6785 17.4524C62.8124 18.3899 62.3595 19.6082 62.4029 20.8849C62.4464 22.1652 62.9827 23.347 63.9104 24.2225C64.501 24.7769 65.204 25.1563 65.9614 25.3532V28.399H59.1416V24.9228C59.1416 24.2589 58.6053 23.7191 57.9458 23.7191H55.8151V15.231H53.4271V23.7191H46.4044V19.5243C47.1618 19.3273 47.8648 18.9443 48.4554 18.3935C49.3831 17.5217 49.9194 16.3362 49.9665 15.0596C50.0571 12.4187 47.9988 10.1972 45.3789 10.1061C44.107 10.0696 42.8967 10.5182 41.969 11.39C41.0414 12.2618 40.5051 13.4473 40.4616 14.7276C40.3819 17.0111 41.9111 18.9771 44.02 19.5279V23.7227H36.9974V9.42759C37.7547 9.23062 38.4577 8.84762 39.0484 8.29682C39.976 7.42503 40.5123 6.23955 40.5594 4.96287C40.6428 2.31832 38.5845 0.0968992 35.9646 0.00206025C34.6927 -0.0344163 33.486 0.414245 32.5547 1.28603C31.6271 2.15782 31.0908 3.34331 31.0437 4.62364C30.9639 6.90707 32.4931 8.87315 34.6021 9.42395V23.7227H27.5794V15.2347H25.1914V23.7227H23.0607C22.4012 23.7227 21.8649 24.2626 21.8649 24.9265V28.4027H15.0451V25.3569C15.8025 25.1599 16.5055 24.7769 17.0961 24.2261C18.0238 23.3543 18.5601 22.1688 18.6036 20.8885C18.6942 18.2476 16.6359 16.0262 14.016 15.935C12.7477 15.8949 11.5338 16.3472 10.6061 17.219C9.67847 18.0908 9.14217 19.2763 9.09506 20.5529C9.01534 22.8364 10.5445 24.8024 12.6535 25.3532V29.6028C12.6535 30.2666 13.1898 30.8065 13.8493 30.8065H21.8613V36.2305H11.1859C10.9468 35.0961 10.3742 34.0602 9.51903 33.2504C8.41381 32.2072 6.97159 31.6637 5.46051 31.7147C2.34778 31.8242 -0.101828 34.4797 0.00325868 37.6312C0.0576138 39.1596 0.691757 40.5749 1.79698 41.6145C2.85509 42.6103 4.21759 43.1538 5.65257 43.1538C5.72142 43.1538 5.78664 43.1538 5.85549 43.1538C8.49715 43.0589 10.6532 41.1366 11.1859 38.6343H21.8649V44.0584H13.8529C13.1934 44.0584 12.6571 44.5983 12.6571 45.2621V49.5116C10.5482 50.0624 9.02259 52.0322 9.09868 54.3119C9.14217 55.5886 9.67847 56.7741 10.6098 57.6459C11.4976 58.4812 12.6426 58.9335 13.8493 58.9335C13.9073 58.9335 13.9617 58.9335 14.0196 58.9335C16.6395 58.8423 18.6978 56.6173 18.6072 53.98C18.5637 52.7033 18.0274 51.5178 17.0998 50.6424C16.5091 50.088 15.8097 49.705 15.0488 49.508V46.4622H21.8685V49.9384C21.8685 50.6023 22.4048 51.1421 23.0643 51.1421H33.428V48.7383H24.2565V26.1302H56.75V48.7383H47.4698V51.1421H57.9458C58.6053 51.1421 59.1416 50.6023 59.1416 49.9384V46.4622H65.9614V49.508C65.204 49.705 64.501 50.088 63.9104 50.6424C62.9827 51.5142 62.4464 52.6997 62.4029 53.98C62.3595 55.2603 62.8124 56.4787 63.6785 57.4125C64.5445 58.3499 65.7222 58.8898 66.9905 58.9335C67.0485 58.9335 67.1028 58.9335 67.1608 58.9335C68.3675 58.9335 69.5126 58.4812 70.4004 57.6459C71.328 56.7741 71.8644 55.5886 71.9115 54.3119C71.9912 52.0285 70.462 50.0624 68.353 49.5116V45.2621C68.353 44.5983 67.8167 44.0584 67.1572 44.0584H59.1416V38.6343H69.817C70.0561 39.7724 70.6287 40.8083 71.4839 41.6181C72.542 42.6139 73.9045 43.1574 75.3395 43.1574C75.4083 43.1574 75.4735 43.1574 75.5424 43.1574C78.6587 43.048 81.1083 40.3925 80.9996 37.2373C80.9453 35.7089 80.3111 34.2973 79.2059 33.2541C78.1007 32.2108 76.6585 31.6673 75.1474 31.7184V31.7111ZM64.7873 20.801C64.7656 20.1626 64.9902 19.5571 65.4215 19.0902C65.8527 18.6233 66.4397 18.357 67.0702 18.3315C67.0992 18.3315 67.1282 18.3315 67.1536 18.3315C67.7551 18.3315 68.324 18.5577 68.7661 18.9735C69.2299 19.4076 69.4945 19.9985 69.5162 20.6368C69.5633 21.95 68.5378 23.0589 67.2333 23.1063C66.6028 23.1282 65.9976 22.902 65.5374 22.4679C65.0736 22.0339 64.8091 21.443 64.7873 20.8046V20.801ZM42.8423 14.8115C42.8641 14.1732 43.1322 13.5823 43.5924 13.1482C44.0345 12.7324 44.6034 12.5062 45.205 12.5062C45.234 12.5062 45.263 12.5062 45.2883 12.5062C46.5928 12.5536 47.6183 13.6589 47.5712 14.9757C47.5495 15.614 47.2813 16.2049 46.8211 16.639C46.3573 17.0731 45.7522 17.2956 45.1253 17.2773C43.8207 17.2336 42.7952 16.1247 42.8423 14.8115ZM33.4317 4.70753C33.4534 4.06919 33.7216 3.47827 34.1818 3.0442C34.6238 2.62837 35.1928 2.40222 35.7943 2.40222C35.8233 2.40222 35.8523 2.40222 35.8776 2.40222C37.1822 2.44599 38.2077 3.55487 38.1606 4.86803C38.1388 5.50637 37.8707 6.09729 37.4105 6.53136C36.9466 6.96543 36.3451 7.19158 35.7146 7.1697C34.4101 7.12592 33.3846 6.01704 33.4317 4.70388V4.70753ZM11.4903 20.6368C11.5121 19.9985 11.7802 19.4076 12.2404 18.9735C12.6825 18.5577 13.2514 18.3315 13.8529 18.3315C13.8819 18.3315 13.9109 18.3315 13.9363 18.3315C15.2408 18.3753 16.2663 19.4842 16.2192 20.7973C16.1975 21.4357 15.9293 22.0266 15.4691 22.4607C15.0053 22.8947 14.4001 23.1245 13.7732 23.099C12.4687 23.0552 11.4432 21.9463 11.4903 20.6295V20.6368ZM5.77577 40.75C4.90609 40.7792 4.07265 40.4655 3.43488 39.8636C2.79349 39.2581 2.42387 38.4374 2.39488 37.551C2.33328 35.7199 3.74652 34.1806 5.55111 34.1185C5.59097 34.1185 5.6272 34.1185 5.66706 34.1185C6.49688 34.1185 7.28322 34.4322 7.892 35.0086C8.53339 35.6141 8.903 36.4348 8.93199 37.3212C8.9936 39.1523 7.58036 40.6916 5.77577 40.7536V40.75ZM16.2228 54.0603C16.2699 55.3734 15.2444 56.4823 13.9399 56.5261C13.3094 56.548 12.7042 56.3218 12.244 55.8877C11.7802 55.4537 11.5157 54.8627 11.4939 54.2244C11.4468 52.9112 12.4723 51.8024 13.7768 51.7549C14.4037 51.7294 15.0125 51.9592 15.4727 52.3933C15.9366 52.8274 16.2011 53.4183 16.2228 54.0566V54.0603ZM69.5198 54.2281C69.4981 54.8664 69.2299 55.4537 68.7697 55.8914C68.3059 56.3255 67.6971 56.5516 67.0739 56.5297C66.4433 56.5078 65.8563 56.2379 65.4251 55.771C64.9939 55.3041 64.7692 54.6986 64.7909 54.0603C64.8127 53.4219 65.0808 52.8347 65.541 52.3969C65.9831 51.9811 66.552 51.7549 67.1536 51.7549C67.1826 51.7549 67.2116 51.7549 67.2369 51.7549C68.5414 51.7987 69.5669 52.9076 69.5198 54.2244V54.2281ZM75.459 40.75C74.5894 40.7792 73.7559 40.4655 73.1181 39.8636C72.4768 39.2581 72.1071 38.4374 72.0781 37.551C72.0165 35.7199 73.4298 34.1806 75.2344 34.1185C75.2742 34.1185 75.3105 34.1185 75.3503 34.1185C76.1801 34.1185 76.9665 34.4322 77.5753 35.0086C78.2167 35.6141 78.5863 36.4348 78.6153 37.3212C78.6769 39.1523 77.2636 40.6916 75.459 40.7536V40.75Z" fill="white"/>
<path d="M63.4428 63.9054C62.526 61.9502 60.8663 60.9982 58.8769 61.29C58.3334 61.3703 57.7536 61.5599 57.2173 61.8299C56.4092 59.8857 54.7749 58.8716 52.7095 59.0941C52.1949 59.1488 51.6042 59.2984 51.0498 59.5282C49.9736 57.9743 48.6727 57.0916 47.1833 56.8982C46.3499 56.7925 45.5781 56.9274 44.9294 57.1463L44.9838 44.2445C44.9838 42.6724 44.2445 41.3374 42.9473 40.5786C41.4761 39.7214 39.4794 39.7287 37.9865 40.5932C36.6674 41.3556 35.9101 42.6833 35.9065 44.2445C35.9282 46.7869 35.9717 59.9148 35.9427 66.3092C33.8519 64.2118 30.9094 62.3004 29.2389 61.6292C27.1009 60.772 24.9666 61.6986 24.0389 63.0044C23.2562 64.106 23.2997 65.4082 24.1476 66.4004C24.6332 66.9803 26.735 71.2627 28.5903 75.0417C32.4386 82.8805 35.2651 88.5343 36.6058 89.9241C38.8199 92.2258 40.9905 93.9985 46.6036 93.9985C46.8608 93.9985 47.1254 93.9985 47.3971 93.9876C56.4165 93.7359 61.4969 86.6412 63.1094 80.6445C64.4284 75.7274 63.5913 64.7845 63.5551 64.3212C63.5442 64.1753 63.508 64.033 63.4464 63.9017L63.4428 63.9054ZM60.8011 80.0207C59.4024 85.2223 55.0359 91.3758 47.3283 91.5911C42.0703 91.7406 40.3455 90.3655 38.3162 88.2608C37.1349 87.0315 33.4315 79.4918 30.7282 73.9838C28.1083 68.6473 26.5936 65.5906 25.9559 64.8428C25.8761 64.748 25.8 64.6604 25.9776 64.4088C26.2204 64.0659 26.8111 63.7084 27.5285 63.7084C27.7894 63.7084 28.0685 63.7558 28.3511 63.8689C31.616 65.1784 35.4608 68.8334 35.9282 70.2997C36.1094 70.8651 36.6783 71.2189 37.2581 71.1241C38.2691 70.9599 38.2836 70.1647 38.3017 68.9574C38.3126 68.319 38.3198 67.4035 38.3271 66.2982C38.338 64.3066 38.3416 61.5453 38.338 58.0947C38.3307 52.0724 38.3053 45.6015 38.2945 44.2372C38.2945 43.5405 38.5916 43.0153 39.175 42.676C39.9324 42.2383 41.0159 42.231 41.7478 42.6578C42.3095 42.9861 42.5922 43.515 42.5922 44.2336L42.5124 63.5661C42.5124 64.23 43.0415 64.7699 43.701 64.7735H43.7082C44.3641 64.7735 44.8968 64.241 44.9041 63.5807L44.9294 59.7762C45.3643 59.5136 46.0999 59.1744 46.8826 59.2765C47.6109 59.3713 48.2994 59.8383 48.93 60.6699V61.9685C48.901 62.9789 48.9227 65.1565 48.9227 65.255C48.93 65.9152 49.4626 66.4441 50.1149 66.4441H50.1185C50.7744 66.4441 51.3071 65.9043 51.3071 65.2441V62.1071C51.6912 61.808 52.7566 61.3046 53.7023 61.5089C53.9632 61.5636 54.7387 61.7314 55.1554 63.154L55.1736 66.4587C55.1772 67.119 55.7099 67.6552 56.3657 67.6552C57.0216 67.6552 57.5543 67.1226 57.5616 66.4624C57.5616 66.4624 57.5724 65.1164 57.576 64.4598C57.8623 64.1571 58.7646 63.5953 59.6814 63.6464C60.3192 63.6865 60.812 64.044 61.1889 64.7443C61.3012 66.353 61.9172 75.8697 60.8011 80.0207Z" fill="white"/>
<path d="M50.0389 43.6609V31.2078C50.0389 30.5439 49.5026 30.0041 48.8431 30.0041H32.1597C31.5002 30.0041 30.9639 30.5439 30.9639 31.2078V43.6609H33.3519V32.4115H47.6473V43.6609H50.0353H50.0389Z" fill="white"/>
</svg>
