<svg width="81" height="98" viewBox="0 0 81 98" fill="none" xmlns="http://www.w3.org/2000/svg">
<path fill-rule="evenodd" clip-rule="evenodd" d="M9.34333 70.7997C8.61508 70.4779 7.61535 70.0362 7.2856 68.9179L7.28958 68.9258C6.93919 67.7374 7.62404 66.4894 8.17352 65.6548C8.19343 65.623 8.20537 65.5991 8.21334 65.5832C8.16586 65.4411 7.93364 65.1223 7.77444 64.9038L7.77137 64.8996L7.76868 64.8959C6.97206 63.8026 5.65493 61.9948 7.29356 58.9577C6.84322 58.6383 5.79715 58.2093 5.06135 57.9076L5.04389 57.9005L5.04071 57.8992C2.77589 56.9694 0.209996 55.9161 0.00702393 53.6636C-0.00890293 53.5245 0.00304222 53.3814 0.0348959 53.2463C0.476048 51.3817 1.67886 49.5567 3.06919 47.4473L3.07693 47.4355L3.08884 47.4174C5.17633 44.2462 7.54068 40.6544 7.67182 36.1797C8.01027 24.5144 10.6462 16.4739 15.9657 10.8659C21.9144 4.59804 31.1998 1.18392 45.1835 0.126694C51.1521 -0.330377 62.4164 0.0750251 70.8457 7.82536C77.5111 13.9581 80.9274 23.3499 80.9991 35.7385C81.0787 49.3552 75.6716 55.5197 71.7217 60.0228L71.7217 60.0229C70.0255 61.9545 68.5642 63.6238 68.0187 65.3845C67.087 68.4012 67.5249 70.1857 67.951 71.9147C68.3253 73.4329 68.7115 75.0029 67.8674 76.8987C61.0029 92.3 55.2971 97.8008 36.9295 97.9955H36.8817C31.375 97.9995 28.329 87.9439 27.4371 84.4543C22.9337 84.4782 12.6251 84.1363 10.5665 80.8971C8.79467 78.1149 9.10922 75.9607 10.1843 72.0379C10.3953 71.2668 10.3396 71.239 9.34812 70.8018L9.34333 70.7997ZM6.0033 55.4589L6.03534 55.472H6.03136C7.87887 56.2272 9.47156 56.883 9.91751 58.1946C10.0609 58.6119 10.1365 59.2637 9.70648 60.003C8.70108 61.7285 9.17107 62.3733 9.88146 63.3478L9.88566 63.3535L9.88814 63.3569C10.4618 64.1443 11.425 65.4663 10.3595 67.0856C9.9852 67.6579 9.86575 67.9799 9.82593 68.1269C9.96927 68.2144 10.2241 68.3257 10.4073 68.4051C13.521 69.7803 12.9556 71.8471 12.7127 72.7294C11.6535 76.6006 11.6655 77.7373 12.7804 79.4941C13.7559 81.0283 21.6596 81.9345 28.4444 81.8271H28.4643C29.0775 81.8271 29.615 82.2524 29.7464 82.8526C30.6583 86.9463 33.5928 95.3803 36.8777 95.3803H36.8976C54.0946 95.1975 58.8926 90.5791 65.4624 75.8375C65.9203 74.8121 65.7531 74.0013 65.3947 72.5426C64.9328 70.6627 64.3595 68.3217 65.5062 64.6135C66.215 62.3201 67.8475 60.4561 69.7388 58.3019C73.617 53.8822 78.4428 48.3815 78.3671 35.7584C78.2995 24.1209 75.1658 15.373 69.0579 9.75301C61.3612 2.67039 50.9212 2.31269 45.3787 2.73399C32.0797 3.73954 23.3399 6.89532 17.869 12.6624C12.9556 17.8452 10.6183 25.1185 10.2918 36.2512C10.1365 41.4817 7.4369 45.5794 5.26289 48.8703L5.25011 48.8897C4.08084 50.6662 3.05954 52.2178 2.65885 53.5682C2.98195 54.2172 4.97782 55.0374 6.0033 55.4589ZM55.2653 45.0309H34.9267C34.202 45.0309 33.6127 44.4427 33.6127 43.7193V23.3062C33.6127 22.5828 34.202 21.9946 34.9267 21.9946H55.2653C55.9899 21.9946 56.5792 22.5828 56.5792 23.3062V43.7193C56.5792 44.4427 55.9899 45.0309 55.2653 45.0309ZM53.9553 24.6177H36.2406V42.4117H53.9553V24.6177ZM37.6143 13.5845H34.9904V18.811H37.6143V13.5845ZM52.5736 13.5845H55.1976V18.811H52.5736V13.5845ZM49.3365 13.5845H46.7125V18.811H49.3365V13.5845ZM40.8514 13.5845H43.4754V18.811H40.8514V13.5845ZM30.5149 41.0723H25.3307V43.6915H30.5149V41.0723ZM25.3307 23.3419H30.5149V25.9611H25.3307V23.3419ZM30.5149 29.2521H25.3307V31.8713H30.5149V29.2521ZM25.3307 35.1622H30.5149V37.7814H25.3307V35.1622ZM55.1976 48.2185H52.5736V53.445H55.1976V48.2185ZM34.9904 48.2185H37.6143V53.445H34.9904V48.2185ZM43.4754 48.2185H40.8514V53.445H43.4754V48.2185ZM46.7125 48.2185H49.3365V53.445H46.7125V48.2185ZM64.8612 23.338H59.677V25.9572H64.8612V23.338ZM59.677 41.0683H64.8612V43.6875H59.677V41.0683ZM64.8612 35.1582H59.677V37.7774H64.8612V35.1582ZM59.677 29.2481H64.8612V31.8673H59.677V29.2481Z" fill="white"/>
</svg>
