<svg width="81" height="95" viewBox="0 0 81 95" fill="none" xmlns="http://www.w3.org/2000/svg">
<path fill-rule="evenodd" clip-rule="evenodd" d="M39.3608 -0.000488281H41.6427V6.27982H39.3608V-0.000488281ZM23.4461 62.3392C26.0293 64.2481 27.5702 67.2811 27.5702 70.4489V71.5314C27.5702 73.5441 29.2254 75.1799 31.2615 75.1799H49.7455C51.7816 75.1799 53.4367 73.5441 53.4367 71.5314V70.4489C53.4367 67.2776 54.9776 64.2481 57.5608 62.3392C64.7841 56.9961 68.9289 48.8379 68.9289 39.9569C68.9289 24.5294 56.1792 11.9791 40.5069 11.9791C24.8346 11.9791 12.078 24.5294 12.078 39.9569C12.078 48.8379 16.2229 56.9961 23.4461 62.3392ZM40.5 14.2582C54.9153 14.2582 66.6401 25.7847 66.6401 39.9569C66.6401 48.1082 62.8346 55.5989 56.1965 60.5062C53.0351 62.8441 51.1479 66.5583 51.1479 70.4489V71.5314C51.1479 72.2853 50.5177 72.9009 49.7385 72.9009H31.2545C30.4789 72.9009 29.8452 72.2887 29.8452 71.5314V70.4489C29.8452 66.5583 27.958 62.8441 24.7966 60.5062C18.1585 55.5989 14.353 48.1082 14.353 39.9569C14.353 25.7882 26.0812 14.2582 40.4931 14.2582H40.5ZM47.6228 94.1661L49.136 88.7469C49.233 88.4045 49.1603 88.0345 48.9456 87.7509C48.7309 87.4673 48.395 87.3013 48.0383 87.3013H32.8924C32.5357 87.3013 32.1999 87.4673 31.9852 87.7509C31.7705 88.0345 31.6978 88.4045 31.7947 88.7469L33.3079 94.1661C33.4464 94.6571 33.8966 94.9995 34.4056 94.9995H46.5217C47.0342 94.9995 47.4843 94.6571 47.6194 94.1661H47.6228ZM35.2748 92.7205L34.3987 89.5838H46.5355L45.6595 92.7205H35.2748ZM30.4997 82.515H50.4311V84.794H30.4997V82.515ZM52.0897 77.7321H28.8376V80.0112H52.0897V77.7321ZM25.8735 44.3317C24.3603 44.3766 22.4004 43.9755 21.41 43.7127L21.4031 43.7057C20.901 43.5743 20.5547 43.1213 20.5547 42.606V36.8756C20.5547 36.3603 20.9045 35.9072 21.4031 35.7758C22.3934 35.513 24.3568 35.1153 25.87 35.1568L26.888 32.736C25.7938 31.7088 24.6961 30.073 24.1871 29.2015C23.9274 28.752 24.0036 28.1813 24.3741 27.8148L28.4947 23.7616C28.8549 23.4054 29.4124 23.3328 29.8556 23.5818C30.7455 24.0832 32.4215 25.1692 33.4637 26.2516L35.9534 25.2383C35.9154 23.7478 36.317 21.825 36.5837 20.8532C36.7222 20.3586 37.1723 20.0163 37.6848 20.0163H43.5091C44.0251 20.0163 44.4752 20.3586 44.6103 20.8532C44.8769 21.825 45.2751 23.7478 45.2405 25.2383L47.7302 26.2516C48.7724 25.1692 50.4449 24.0832 51.3349 23.5818C51.7781 23.3293 52.3321 23.4054 52.6957 23.7616L56.8163 27.8148C57.1903 28.1813 57.2665 28.752 57.0033 29.2015C56.4943 30.0765 55.3966 31.7123 54.3024 32.7394L55.3239 35.1602C56.8371 35.1187 58.8005 35.5164 59.7908 35.7793C60.2929 35.9107 60.6392 36.3637 60.6392 36.879V42.6094C60.6392 43.1247 60.2895 43.5778 59.7908 43.7092C58.804 43.972 56.8406 44.3732 55.3274 44.3282L54.3059 46.7491C55.4001 47.7796 56.4978 49.4154 57.0068 50.2869C57.2665 50.7365 57.1903 51.3071 56.8198 51.6737L52.6992 55.7268C52.3391 56.083 51.7815 56.1557 51.3383 55.9067C50.4519 55.4052 48.7759 54.3193 47.7336 53.2369L45.2439 54.2501C45.282 55.7407 44.8803 57.6635 44.6137 58.6353C44.4752 59.1298 44.0251 59.4722 43.5126 59.4722H37.6883C37.1723 59.4722 36.7222 59.1298 36.5871 58.6353C36.3205 57.6635 35.9223 55.7407 35.9569 54.2501L33.4672 53.2369C32.4215 54.3159 30.749 55.4052 29.8591 55.9067C29.4158 56.1591 28.8618 56.083 28.4982 55.7268L24.3776 51.6737C24.0036 51.3071 23.9274 50.7365 24.1906 50.2869C24.6996 49.4154 25.7973 47.7796 26.8915 46.7525L25.8735 44.3317ZM26.3479 37.4911C25.6865 37.339 24.1698 37.505 22.847 37.7816V41.7103C24.1663 41.9835 25.6865 42.1495 26.3479 42.0008C26.8846 41.8797 27.4351 42.1633 27.6498 42.6717L29.3293 46.6626C29.5474 47.1813 29.3535 47.7796 28.8756 48.0736C28.3043 48.4263 27.3624 49.5849 26.6283 50.6915L29.4643 53.4824C30.6001 52.7561 31.7947 51.8189 32.1548 51.2518C32.4526 50.7884 33.0413 50.6016 33.5503 50.8091L37.6086 52.4622C38.128 52.6731 38.4154 53.2299 38.2873 53.7764C38.135 54.4231 38.3046 55.8998 38.5816 57.1932H42.6157C42.8927 55.9032 43.0624 54.4231 42.9101 53.7764C42.7819 53.2299 43.0693 52.6731 43.5887 52.4622L47.6471 50.8091C48.1595 50.6016 48.7447 50.7884 49.0425 51.2518C49.4027 51.8189 50.6008 52.7596 51.7331 53.4824L54.569 50.6915C53.8384 49.5849 52.8931 48.4263 52.3217 48.0736C51.8404 47.7796 51.65 47.1813 51.8681 46.6626L53.5475 42.6717C53.7588 42.1599 54.3093 41.8763 54.8495 42.0008C55.5109 42.1529 57.0276 41.9869 58.3503 41.7103V37.7816C57.031 37.5084 55.5144 37.3424 54.8495 37.4911C54.3128 37.6122 53.7622 37.3286 53.5475 36.8202L51.8681 32.8293C51.65 32.3106 51.8439 31.7123 52.3217 31.4183C52.8931 31.0656 53.8349 29.907 54.569 28.8004L51.7331 26.0095C50.5973 26.7358 49.4027 27.673 49.0425 28.2401C48.7447 28.7036 48.1561 28.8903 47.6471 28.6828L43.5887 27.0297C43.0693 26.8188 42.7819 26.262 42.9101 25.7156C43.0624 25.0689 42.8927 23.5922 42.6157 22.2987H38.5816C38.3046 23.5922 38.135 25.0689 38.2873 25.7156C38.4154 26.262 38.128 26.8188 37.6086 27.0297L33.5503 28.6828C33.0378 28.8938 32.4492 28.707 32.1548 28.2401C31.7947 27.673 30.5966 26.7323 29.4643 26.0095L26.6283 28.8004C27.359 29.907 28.3043 31.0656 28.8756 31.4183C29.357 31.7123 29.5474 32.3106 29.3293 32.8293L27.6498 36.8202C27.4386 37.3321 26.888 37.6122 26.3479 37.4911ZM40.6004 49.4638C46.0369 49.4638 50.4622 45.1029 50.4622 39.746C50.4622 38.373 50.1783 37.045 49.6139 35.8L47.5328 36.7372C47.9622 37.6883 48.1803 38.6981 48.1803 39.746C48.1803 43.8475 44.7799 47.1848 40.6004 47.1848C36.4209 47.1848 33.0205 43.8475 33.0205 39.746C33.0205 35.6444 36.4209 32.3071 40.6004 32.3071C42.4461 32.3071 44.2259 32.9642 45.6075 34.1608L47.1 32.4385C45.3028 30.8823 42.9932 30.0281 40.597 30.0281C35.157 30.0281 30.7351 34.389 30.7351 39.746C30.7351 45.1029 35.1605 49.4638 40.597 49.4638H40.6004ZM21.2234 4.77868L19.2548 5.93126L22.4473 11.3701L24.4159 10.2175L21.2234 4.77868ZM4.85184 20.9504L5.97968 18.9692L11.5095 22.1091L10.3816 24.0903L4.85184 20.9504ZM6.38526 38.7638H0V41.0428H6.38526V38.7638ZM4.88439 58.8435L10.4142 55.7036L11.542 57.6848L6.01223 60.8247L4.88439 58.8435ZM59.7795 4.78168L56.5871 10.2205L58.5557 11.3731L61.7481 5.93426L59.7795 4.78168ZM69.4918 22.1071L75.021 18.9662L76.1492 20.9472L70.62 24.0881L69.4918 22.1071ZM81.0035 38.7638H74.6182V41.0428H81.0035V38.7638ZM69.4595 57.6784L70.5874 55.6972L76.1172 58.8371L74.9893 60.8183L69.4595 57.6784Z" fill="white"/>
</svg>
