<svg width="87" height="95" viewBox="0 0 87 95" fill="none" xmlns="http://www.w3.org/2000/svg">
<path fill-rule="evenodd" clip-rule="evenodd" d="M0.182966 59.3314C0.851291 64.3003 3.22616 68.4627 6.39965 70.3905C4.97894 74.2169 5.84061 79.4 8.72408 83.7808C11.8471 88.5228 16.496 91.1101 20.5396 90.4381C23.7299 93.437 27.4708 94.9953 30.9974 94.9953C33.4731 94.9953 35.8396 94.2266 37.8404 92.6516C39.6058 91.2613 40.9634 89.304 41.7747 86.9897L40.4674 86.5319H41.9512V5.90495H40.4758L41.7957 5.48073C41.161 3.50244 39.7697 1.95257 37.7731 0.999126C34.9527 -0.349136 31.2832 -0.336536 27.702 1.04113C24.4192 2.30539 22.0948 4.49789 20.7792 7.56823C18.3875 7.44643 15.7856 8.63088 13.457 10.9284C9.10658 15.2042 7.84559 19.6606 9.69925 24.1968C5.76075 25.5451 3.19253 28.5104 1.49019 33.5926C-0.254178 38.8051 0.267032 44.1561 2.73437 47.4113C0.536044 50.2926 -0.43492 54.7196 0.182966 59.3314ZM5.53377 46.4074C3.15891 44.1351 2.56624 39.1159 4.11726 34.4747C5.74814 29.6109 8.01793 27.2881 11.9564 26.4481C12.3894 26.3557 12.7508 26.0659 12.9316 25.6627C13.1123 25.2595 13.0913 24.7974 12.8769 24.4152C10.6702 20.509 11.4983 16.7415 15.3989 12.9067C16.3615 11.9574 18.8709 9.81954 21.3382 10.4454C22.0402 10.626 22.7673 10.227 22.9943 9.53812C23.9442 6.67779 25.8063 4.7415 28.694 3.63265C31.527 2.5448 34.4693 2.4944 36.5752 3.50244C37.8698 4.11987 38.7609 5.09852 39.156 6.33337L39.1812 6.32497V35.1173C37.3192 32.9248 34.9905 31.3119 32.4938 31.4799L32.6703 34.2437C34.6543 34.1093 37.3024 36.5034 39.1812 40.0819V70.672C37.3192 68.4795 34.9947 66.8708 32.4938 67.0346L32.6745 69.7983C34.6585 69.6723 37.3066 72.0622 39.1812 75.6366V86.0909L39.1602 86.0825C38.5129 87.9264 37.4915 89.4048 36.1254 90.4843C32.2584 93.5336 26.4368 92.4962 21.9645 87.96C21.6114 87.5987 21.086 87.4643 20.6026 87.5987C17.6015 88.443 13.6714 86.2505 11.0443 82.2645C8.40883 78.2617 7.74471 73.3979 9.42603 70.4409C9.62359 70.0923 9.66142 69.6723 9.52691 69.2943C9.39241 68.9163 9.09818 68.6139 8.71988 68.4669C5.87004 67.3664 3.54561 63.5484 2.93193 58.9702C2.36028 54.6986 3.39009 50.5488 5.55479 48.3941C5.8196 48.1295 5.96671 47.7725 5.96251 47.3987C5.96251 47.0249 5.80699 46.672 5.53798 46.4116L5.53377 46.4074ZM45.2269 86.9977L45.2256 86.9939V86.9981L45.2269 86.9977ZM45.2269 86.9977C46.0383 89.3103 47.3996 91.2663 49.1599 92.6558C51.1606 94.2309 53.5271 94.9995 56.0029 94.9995C59.5294 94.9995 63.2704 93.4412 66.4607 90.4423C70.5043 91.1101 75.1531 88.527 78.2762 83.785C81.1638 79.4 82.0213 74.2211 80.6006 70.3947C83.7741 68.4669 86.1532 64.3045 86.8173 59.3356C87.4352 54.7238 86.4642 50.2968 84.2659 47.4155C86.7332 44.1603 87.2544 38.8135 85.5101 33.5968C83.8077 28.5146 81.2395 25.5535 77.301 24.201C79.1547 19.6648 77.8937 15.2084 73.5432 10.9326C71.2104 8.63508 68.6128 7.45482 66.2211 7.57243C64.9055 4.50209 62.581 2.30959 59.2982 1.04533C55.717 -0.332336 52.0433 -0.349136 49.2271 1.00333C47.2306 1.96097 45.8393 3.51084 45.2046 5.48493L46.5244 5.90915H45.049V86.5403H46.5328L45.2269 86.9977ZM54.3257 69.7941C52.3544 69.6639 49.6979 72.0538 47.819 75.6324L47.8232 75.6366V86.0909L47.8442 86.0825C48.4873 87.9264 49.5087 89.4048 50.879 90.4843C54.7419 93.5336 60.5676 92.492 65.04 87.96C65.393 87.5987 65.9142 87.4601 66.4018 87.5987C69.403 88.4472 73.3331 86.2505 75.9559 82.2645C78.5914 78.2617 79.2555 73.4021 77.5742 70.4409C77.3767 70.0923 77.3388 69.6723 77.4733 69.2943C77.612 68.9121 77.9063 68.6139 78.2804 68.4669C81.126 67.3664 83.4546 63.5484 84.0683 58.9702C84.64 54.6986 83.6102 50.5488 81.4455 48.3941C81.1806 48.1295 81.0377 47.7725 81.0377 47.3987C81.0377 47.0249 81.1933 46.6678 81.4623 46.4116C83.8371 44.1351 84.4298 39.1159 82.8788 34.4747C81.2521 29.6109 78.9781 27.2881 75.0396 26.4481C74.6067 26.3557 74.2452 26.0659 74.0645 25.6627C73.8837 25.2636 73.9047 24.7974 74.1191 24.4152C76.3258 20.509 75.502 16.7415 71.5971 12.9067C70.6304 11.9532 68.1294 9.81533 65.6578 10.4412C64.9517 10.6176 64.2287 10.2228 64.0017 9.53392C63.056 6.67359 61.1897 4.7415 58.3021 3.62845C55.469 2.5406 52.5225 2.4902 50.4209 3.49824C49.1262 4.11567 48.2351 5.09432 47.84 6.32917L47.8148 6.32077V35.1047C49.6727 32.9164 51.9971 31.3077 54.5023 31.4715L54.3257 34.2353C52.3376 34.1009 49.6979 36.495 47.819 40.0735V70.6636C49.6769 68.4753 52.0013 66.8666 54.5065 67.0304L54.3257 69.7941ZM69.1718 35.7263L66.4775 36.3732V36.3774C64.8172 29.4554 61.2065 26.4985 54.4224 26.4901V23.7222C56.5997 23.7264 58.529 24.0078 60.2272 24.5706C58.5711 21.2525 58.0961 18.7953 58.693 16.8801C59.1259 15.4856 60.1473 14.4229 61.6479 13.8139L62.6945 16.376C61.7235 16.7709 61.4545 17.3211 61.3368 17.6991C60.7736 19.501 62.1229 22.9115 65.3384 27.8342C67.1038 29.7579 68.3648 32.3746 69.1718 35.7263ZM58.6846 60.9275L57.5202 63.4392C61.6017 65.3293 62.6693 67.7822 63.615 74.8008C59.5126 75.7416 57.3563 79.1059 55.2631 84.4864L57.8439 85.4902C60.5382 78.5599 62.7029 76.3338 69.4744 77.6527L70.0041 74.9352C68.6674 74.6747 67.4653 74.5403 66.3724 74.5277C65.4014 67.2614 64.1278 63.4476 58.6846 60.9275ZM56.9864 50.07L57.7262 47.4029L57.7304 47.3987C65.7293 49.6164 69.3105 47.8733 74.3881 39.2965L76.7714 40.7078C73.7072 45.874 70.9078 48.9275 67.5451 50.2548C69.7393 52.0315 70.7018 54.5222 70.5589 59.5036L67.7889 59.4238C67.9528 53.5982 66.5195 52.4683 63.5226 51.0402C63.4007 51.0486 63.2788 51.0486 63.1527 51.0486C61.3158 51.0486 59.2898 50.7084 56.9864 50.07ZM32.5778 23.7222V26.4901C25.7895 26.5027 22.1831 29.4554 20.5186 36.3774L17.8242 35.7305C18.6313 32.3788 19.8923 29.7621 21.6576 27.8384C24.8732 22.9157 26.2224 19.5052 25.6592 17.7033C25.5415 17.3253 25.2725 16.7751 24.3015 16.3802L25.3482 13.8181C26.8445 14.4271 27.8701 15.4856 28.3031 16.8801C28.8999 18.7911 28.4208 21.2525 26.7689 24.5706C28.467 24.0078 30.3963 23.7222 32.5778 23.7222ZM23.381 74.8008C24.3267 67.7822 25.3944 65.3293 29.4758 63.4392L28.3115 60.9275C22.864 63.4476 21.5946 67.2614 20.6236 74.5277C19.5308 74.5403 18.3286 74.6747 16.992 74.9352L17.5216 77.6527C23.4062 76.5102 26.0501 77.5225 29.1521 85.4902L31.733 84.4864C29.6397 79.1059 27.4834 75.7416 23.381 74.8008ZM19.453 50.2565C17.2604 52.0331 16.3027 54.5196 16.4413 59.5036L19.2113 59.4238C19.0474 53.5982 20.4765 52.4683 23.4777 51.0402C23.5381 51.0402 23.5985 51.0423 23.6595 51.0444C23.7215 51.0465 23.784 51.0486 23.8476 51.0486C25.6802 51.0486 27.7104 50.7084 30.0138 50.07L29.274 47.4029C21.2794 49.6164 17.6981 47.8775 12.6163 39.3007L10.2331 40.712C13.2912 45.8792 16.0932 48.9279 19.453 50.2565Z" fill="white"/>
</svg>
