<svg width="87" height="95" viewBox="0 0 87 95" fill="none" xmlns="http://www.w3.org/2000/svg">
<path fill-rule="evenodd" clip-rule="evenodd" d="M0.184919 59.3319C0.853245 64.3008 3.22811 68.4631 6.40161 70.391C4.98089 74.2174 5.84257 79.4005 8.72604 83.7813C11.8491 88.5233 16.4979 91.1106 20.5415 90.4386C23.7318 93.4375 27.4728 94.9958 30.9993 94.9958C33.4751 94.9958 35.8416 94.2271 37.8423 92.6521C39.6077 91.2618 40.9654 89.3045 41.7766 86.9902L40.4694 86.5324H41.9532V5.90544H40.4778L41.7976 5.48122C41.1629 3.50293 39.7716 1.95306 37.7751 0.999614C34.9547 -0.348648 31.2852 -0.336048 27.704 1.04162C24.4212 2.30588 22.0967 4.49838 20.7811 7.56872C18.3894 7.44691 15.7876 8.63137 13.459 10.9289C9.10854 15.2047 7.84754 19.6611 9.7012 24.1973C5.76271 25.5456 3.19449 28.5109 1.49215 33.5931C-0.252225 38.8056 0.268985 44.1566 2.73633 47.4118C0.537997 50.2931 -0.432967 54.7201 0.184919 59.3319ZM5.53573 46.4079C3.16086 44.1356 2.56819 39.1164 4.11921 34.4752C5.75009 29.6113 8.01988 27.2886 11.9584 26.4486C12.3913 26.3562 12.7528 26.0664 12.9335 25.6632C13.1143 25.2599 13.0933 24.7979 12.8789 24.4157C10.6722 20.5095 11.5002 16.7419 15.4009 12.9072C16.3634 11.9579 18.8728 9.82002 21.3402 10.4459C22.0421 10.6265 22.7693 10.2274 22.9963 9.53861C23.9462 6.67828 25.8083 4.74199 28.6959 3.63314C31.529 2.54529 34.4713 2.49488 36.5771 3.50293C37.8717 4.12036 38.7629 5.099 39.158 6.33386L39.1832 6.32546V35.1178C37.3211 32.9253 34.9925 31.3124 32.4957 31.4804L32.6723 34.2442C34.6562 34.1098 37.3043 36.5039 39.1832 40.0824V70.6724C37.3211 68.4799 34.9967 66.8713 32.4957 67.0351L32.6765 69.7988C34.6604 69.6728 37.3085 72.0627 39.1832 75.6371V86.0914L39.1622 86.083C38.5149 87.9268 37.4935 89.4053 36.1274 90.4848C32.2603 93.5341 26.4388 92.4967 21.9664 87.9604C21.6134 87.5992 21.088 87.4648 20.6046 87.5992C17.6034 88.4435 13.6733 86.251 11.0463 82.265C8.41079 78.2622 7.74667 73.3984 9.42799 70.4414C9.62554 70.0928 9.66337 69.6728 9.52887 69.2948C9.39436 68.9168 9.10013 68.6143 8.72183 68.4673C5.87199 67.3669 3.54756 63.5489 2.93388 58.9707C2.36223 54.6991 3.39204 50.5493 5.55674 48.3946C5.82155 48.13 5.96867 47.773 5.96446 47.3992C5.96446 47.0253 5.80894 46.6725 5.53993 46.4121L5.53573 46.4079ZM45.2288 86.9981L45.2275 86.9944V86.9986L45.2288 86.9981ZM45.2288 86.9981C46.0402 89.3108 47.4016 91.2667 49.1618 92.6563C51.1626 94.2313 53.5291 95 56.0048 95C59.5314 95 63.2723 93.4417 66.4626 90.4428C70.5062 91.1106 75.1551 88.5275 78.2781 83.7854C81.1658 79.4004 82.0233 74.2216 80.6025 70.3952C83.776 68.4673 86.1551 64.3049 86.8192 59.3361C87.4371 54.7243 86.4662 50.2973 84.2678 47.416C86.7352 44.1608 87.2564 38.814 85.512 33.5973C83.8097 28.5151 81.2414 25.554 77.303 24.2015C79.1566 19.6653 77.8956 15.2089 73.5452 10.9331C71.2124 8.63557 68.6147 7.45531 66.223 7.57292C64.9074 4.50258 62.583 2.31008 59.3002 1.04582C55.719 -0.331847 52.0453 -0.348648 49.2291 1.00381C47.2325 1.96146 45.8412 3.51133 45.2065 5.48542L46.5264 5.90964H45.051V86.5408H46.5348L45.2288 86.9981ZM54.3277 69.7946C52.3563 69.6644 49.6998 72.0543 47.821 75.6329L47.8252 75.6371V86.0914L47.8462 86.083C48.4893 87.9268 49.5107 89.4053 50.881 90.4848C54.7438 93.5341 60.5696 92.4925 65.0419 87.9604C65.395 87.5992 65.9162 87.4606 66.4038 87.5992C69.4049 88.4477 73.335 86.251 75.9579 82.265C78.5934 78.2622 79.2575 73.4026 77.5762 70.4414C77.3786 70.0928 77.3408 69.6728 77.4753 69.2948C77.614 68.9126 77.9082 68.6143 78.2823 68.4673C81.128 67.3669 83.4566 63.5489 84.0703 58.9707C84.6419 54.6991 83.6121 50.5493 81.4474 48.3946C81.1826 48.13 81.0397 47.773 81.0397 47.3992C81.0397 47.0253 81.1952 46.6683 81.4642 46.4121C83.8391 44.1356 84.4318 39.1164 82.8807 34.4752C81.2541 29.6113 78.9801 27.2886 75.0416 26.4486C74.6086 26.3562 74.2472 26.0664 74.0664 25.6632C73.8857 25.2641 73.9067 24.7979 74.121 24.4157C76.3278 20.5095 75.5039 16.7419 71.5991 12.9072C70.6323 11.9537 68.1313 9.81582 65.6598 10.4417C64.9536 10.6181 64.2307 10.2232 64.0037 9.53441C63.058 6.67408 61.1917 4.74199 58.304 3.62894C55.471 2.54109 52.5245 2.49068 50.4228 3.49873C49.1282 4.11616 48.2371 5.0948 47.842 6.32966L47.8168 6.32126V35.1052C49.6746 32.9169 51.9991 31.3082 54.5042 31.472L54.3277 34.2358C52.3395 34.1013 49.6998 36.4955 47.821 40.074V70.664C49.6788 68.4757 52.0033 66.8671 54.5084 67.0309L54.3277 69.7946ZM69.1738 35.7268L66.4794 36.3737V36.3779C64.8191 29.4559 61.2085 26.499 54.4244 26.4906V23.7227C56.6017 23.7269 58.531 24.0083 60.2291 24.5711C58.573 21.253 58.098 18.7958 58.6949 16.8805C59.1279 15.4861 60.1493 14.4234 61.6498 13.8144L62.6965 16.3765C61.7255 16.7713 61.4565 17.3216 61.3388 17.6996C60.7756 19.5015 62.1248 22.912 65.3403 27.8347C67.1057 29.7583 68.3667 32.3751 69.1738 35.7268ZM58.6865 60.928L57.5222 63.4397C61.6036 65.3298 62.6712 67.7827 63.617 74.8012C59.5146 75.7421 57.3583 79.1064 55.265 84.4869L57.8459 85.4907C60.5402 78.5604 62.7049 76.3343 69.4764 77.6532L70.006 74.9356C68.6694 74.6752 67.4672 74.5408 66.3744 74.5282C65.4034 67.2619 64.1298 63.4481 58.6865 60.928ZM56.9884 50.0705L57.7282 47.4034L57.7324 47.3992C65.7313 49.6169 69.3125 47.8738 74.3901 39.297L76.7733 40.7083C73.7091 45.8745 70.9097 48.928 67.5471 50.2553C69.7412 52.032 70.7038 54.5227 70.5608 59.5041L67.7909 59.4243C67.9548 53.5987 66.5215 52.4688 63.5245 51.0407C63.4026 51.0491 63.2807 51.0491 63.1546 51.0491C61.3178 51.0491 59.2918 50.7089 56.9884 50.0705ZM32.5798 23.7227V26.4906C25.7915 26.5032 22.185 29.4559 20.5205 36.3779L17.8262 35.731C18.6332 32.3793 19.8942 29.7625 21.6596 27.8389C24.8751 22.9162 26.2244 19.5057 25.6611 17.7038C25.5435 17.3258 25.2744 16.7755 24.3035 16.3807L25.3501 13.8186C26.8465 14.4276 27.8721 15.4861 28.305 16.8805C28.9019 18.7916 28.4227 21.253 26.7708 24.5711C28.469 24.0083 30.3983 23.7227 32.5798 23.7227ZM23.383 74.8012C24.3287 67.7827 25.3963 65.3298 29.4777 63.4397L28.3134 60.928C22.866 63.4481 21.5966 67.2619 20.6256 74.5282C19.5327 74.5408 18.3306 74.6752 16.9939 74.9356L17.5236 77.6532C23.4082 76.5107 26.0521 77.523 29.1541 85.4907L31.7349 84.4869C29.6417 79.1064 27.4854 75.7421 23.383 74.8012ZM19.455 50.257C17.2623 52.0336 16.3046 54.5201 16.4433 59.5041L19.2133 59.4243C19.0494 53.5987 20.4785 52.4688 23.4796 51.0407C23.5401 51.0407 23.6005 51.0428 23.6614 51.0449C23.7234 51.047 23.7859 51.0491 23.8495 51.0491C25.6822 51.0491 27.7124 50.7089 30.0158 50.0705L29.276 47.4034C21.2813 49.6169 17.7001 47.878 12.6183 39.3012L10.235 40.7125C13.2931 45.8797 16.0951 48.9284 19.455 50.257Z" fill="url(#paint0_linear_23_400)"/>
<defs>
<linearGradient id="paint0_linear_23_400" x1="43.5021" y1="-0.00170898" x2="43.5021" y2="95" gradientUnits="userSpaceOnUse">
<stop stop-color="#EC4893"/>
<stop offset="1" stop-color="#3B82F6"/>
</linearGradient>
</defs>
</svg>
