<svg width="81" height="94" viewBox="0 0 81 94" fill="none" xmlns="http://www.w3.org/2000/svg">
<path fill-rule="evenodd" clip-rule="evenodd" d="M75.144 31.7088C72.5024 31.8037 70.3499 33.726 69.8172 36.2246H59.1383V30.8006H67.1538C67.8134 30.8006 68.3497 30.2607 68.3497 29.5968V25.3473C70.4586 24.7965 71.9842 22.8268 71.9081 20.547C71.8646 19.2703 71.3283 18.0848 70.397 17.2131C69.4694 16.3413 68.2591 15.889 66.9872 15.9291C65.7189 15.9729 64.5412 16.5127 63.6751 17.4502C62.8091 18.3876 62.3561 19.6059 62.3996 20.8826C62.4431 22.1629 62.9794 23.3448 63.907 24.2202C64.4977 24.7746 65.2007 25.154 65.958 25.351V28.3968H59.1383V24.9205C59.1383 24.2567 58.602 23.7168 57.9425 23.7168H55.8117V15.2287H53.4237V23.7168H46.4011V19.522C47.1584 19.3251 47.8614 18.942 48.4521 18.3913C49.3797 17.5195 49.916 16.334 49.9631 15.0573C50.0537 12.4164 47.9955 10.195 45.3756 10.1038C44.1036 10.0673 42.8933 10.516 41.9657 11.3878C41.038 12.2595 40.5017 13.445 40.4582 14.7254C40.3785 17.0088 41.9077 18.9749 44.0167 19.5257V23.7205H36.994V9.42532C37.7513 9.22835 38.4543 8.84535 39.045 8.29455C39.9727 7.42276 40.509 6.23728 40.5561 4.9606C40.6394 2.31605 38.5812 0.0946297 35.9613 -0.00020921C34.6893 -0.0366857 33.4827 0.411975 32.5514 1.28376C31.6237 2.15555 31.0874 3.34104 31.0403 4.62137C30.9606 6.9048 32.4898 8.87088 34.5988 9.42168V23.7205H27.5761V15.2324H25.1881V23.7205H23.0573C22.3978 23.7205 21.8615 24.2603 21.8615 24.9242V28.4004H15.0418V25.3546C15.7991 25.1576 16.5021 24.7746 17.0928 24.2238C18.0204 23.3521 18.5567 22.1666 18.6002 20.8862C18.6908 18.2453 16.6326 16.0239 14.0127 15.9327C12.7444 15.8926 11.5304 16.3449 10.6028 17.2167C9.67512 18.0885 9.13881 19.274 9.0917 20.5507C9.01198 22.8341 10.5412 24.8002 12.6502 25.351V29.6005C12.6502 30.2644 13.1865 30.8042 13.846 30.8042H21.8579V36.2283H11.1826C10.9434 35.0938 10.3709 34.0579 9.51567 33.2481C8.41045 32.2049 6.96823 31.6614 5.45716 31.7125C2.34442 31.8219 -0.105183 34.4774 -9.68359e-05 37.629C0.0542583 39.1573 0.688401 40.5726 1.79362 41.6122C2.85174 42.608 4.21424 43.1515 5.64921 43.1515H5.85214C8.4938 43.0567 10.6499 41.1344 11.1826 38.6321H21.8615V44.0561H13.8496C13.1901 44.0561 12.6538 44.596 12.6538 45.2599V49.5094C10.5448 50.0602 9.01923 52.0299 9.09533 54.3097C9.13881 55.5864 9.67512 56.7718 10.6064 57.6436C11.4942 58.4789 12.6393 58.9313 13.846 58.9313H14.0163C16.6362 58.8401 18.6944 56.615 18.6038 53.9777C18.5604 52.7011 18.0241 51.5156 17.0964 50.6401C16.5057 50.0857 15.8064 49.7027 15.0454 49.5057V46.4599H21.8652V49.9361C21.8652 50.6 22.4015 51.1399 23.061 51.1399H33.4247V48.7361H24.2532V26.1279H56.7467V48.7361H47.4664V51.1399H57.9425C58.602 51.1399 59.1383 50.6 59.1383 49.9361V46.4599H65.958V49.5057C65.2007 49.7027 64.4977 50.0857 63.907 50.6401C62.9794 51.5119 62.4431 52.6974 62.3996 53.9777C62.3561 55.2581 62.8091 56.4764 63.6751 57.4102C64.5412 58.3476 65.7189 58.8875 66.9872 58.9313H67.1575C68.3642 58.9313 69.5092 58.4789 70.397 57.6436C71.3247 56.7718 71.861 55.5864 71.9081 54.3097C71.9878 52.0262 70.4586 50.0602 68.3497 49.5094V45.2599C68.3497 44.596 67.8134 44.0561 67.1538 44.0561H59.1383V38.6321H69.8136C70.0528 39.7701 70.6253 40.8061 71.4805 41.6158C72.5386 42.6117 73.9011 43.1552 75.3361 43.1552H75.539C78.6554 43.0457 81.105 40.3902 80.9963 37.235C80.9419 35.7067 80.3078 34.295 79.2026 33.2518C78.0973 32.2086 76.6551 31.6651 75.144 31.7161V31.7088ZM64.784 20.7987C64.7622 20.1604 64.9869 19.5549 65.4181 19.088C65.8493 18.6211 66.4364 18.3548 67.0669 18.3292H67.1502C67.7517 18.3292 68.3207 18.5554 68.7627 18.9712C69.2266 19.4053 69.4911 19.9962 69.5129 20.6346C69.56 21.9477 68.5345 23.0566 67.2299 23.104C66.5994 23.1259 65.9943 22.8997 65.5341 22.4657C65.0702 22.0316 64.8057 21.4407 64.784 20.8023V20.7987ZM42.839 14.8093C42.8607 14.1709 43.1289 13.58 43.5891 13.1459C44.0312 12.7301 44.6001 12.5039 45.2016 12.5039H45.285C46.5895 12.5514 47.615 13.6566 47.5679 14.9734C47.5461 15.6117 47.278 16.2027 46.8178 16.6367C46.3539 17.0708 45.7488 17.2933 45.1219 17.2751C43.8174 17.2313 42.7919 16.1224 42.839 14.8093ZM33.4283 4.70526C33.45 4.06692 33.7182 3.476 34.1784 3.04193C34.6205 2.6261 35.1894 2.39995 35.7909 2.39995H35.8743C37.1788 2.44372 38.2043 3.5526 38.1572 4.86576C38.1355 5.5041 37.8673 6.09502 37.4071 6.52909C36.9433 6.96316 36.3417 7.18931 35.7112 7.16743C34.4067 7.12365 33.3812 6.01477 33.4283 4.70161V4.70526ZM11.487 20.6346C11.5087 19.9962 11.7768 19.4053 12.2371 18.9712C12.6791 18.5554 13.2481 18.3292 13.8496 18.3292H13.9329C15.2375 18.373 16.263 19.4819 16.2158 20.7951C16.1941 21.4334 15.926 22.0243 15.4657 22.4584C15.0019 22.8925 14.3968 23.1223 13.7699 23.0967C12.4653 23.053 11.4398 21.9441 11.487 20.6273V20.6346ZM5.77242 40.7477C4.90274 40.7769 4.06929 40.4632 3.43152 39.8613C2.79013 39.2558 2.42052 38.4351 2.39153 37.5487C2.32993 35.7176 3.74316 34.1783 5.54775 34.1163H5.66371C6.49353 34.1163 7.27987 34.43 7.88864 35.0063C8.53003 35.6118 8.89965 36.4325 8.92864 37.3189C8.99024 39.15 7.57701 40.6893 5.77242 40.7514V40.7477ZM16.2195 54.058C16.2666 55.3711 15.2411 56.48 13.9366 56.5238C13.306 56.5457 12.7009 56.3195 12.2407 55.8855C11.7768 55.4514 11.5123 54.8605 11.4906 54.2221C11.4435 52.909 12.469 51.8001 13.7735 51.7527C14.4004 51.7271 15.0092 51.9569 15.4694 52.391C15.9332 52.8251 16.1977 53.416 16.2195 54.0543V54.058ZM69.5165 54.2258C69.4947 54.8641 69.2266 55.4514 68.7664 55.8891C68.3026 56.3232 67.6938 56.5493 67.0705 56.5275C66.44 56.5056 65.8529 56.2356 65.4217 55.7687C64.9905 55.3018 64.7658 54.6963 64.7876 54.058C64.8093 53.4197 65.0775 52.8324 65.5377 52.3947C65.9798 51.9788 66.5487 51.7527 67.1502 51.7527H67.2336C68.5381 51.7965 69.5636 52.9053 69.5165 54.2221V54.2258ZM75.4557 40.7477C74.586 40.7769 73.7526 40.4632 73.1148 39.8613C72.4734 39.2558 72.1038 38.4351 72.0748 37.5487C72.0132 35.7176 73.4264 34.1783 75.231 34.1163H75.347C76.1768 34.1163 76.9631 34.43 77.5719 35.0063C78.2133 35.6118 78.5829 36.4325 78.6119 37.3189C78.6735 39.15 77.2603 40.6893 75.4557 40.7514V40.7477ZM63.4397 63.9031C62.5229 61.948 60.8633 60.9959 58.8739 61.2877C58.3303 61.368 57.7505 61.5577 57.2142 61.8276C56.4061 59.8834 54.7719 58.8693 52.7064 59.0918C52.1918 59.1466 51.6012 59.2961 51.0467 59.5259C49.9705 57.972 48.6696 57.0893 47.1803 56.896C46.3468 56.7902 45.575 56.9251 44.9263 57.144L44.9807 44.2423C44.9807 42.6701 44.2415 41.3351 42.9442 40.5764C41.473 39.7192 39.4763 39.7265 37.9834 40.591C36.6644 41.3533 35.907 42.6811 35.9034 44.2423C35.9251 46.7847 35.9686 59.9126 35.9396 66.3069C33.8488 64.2095 30.9063 62.2981 29.2358 61.627C27.0979 60.7698 24.9635 61.6963 24.0359 63.0021C23.2531 64.1037 23.2966 65.4059 24.1446 66.3981C24.6284 66.976 26.7167 71.2294 28.567 74.9983L28.5671 74.9985L28.5872 75.0394C32.4355 82.8782 35.262 88.532 36.6028 89.9218C38.8168 92.2235 40.9874 93.9962 46.6005 93.9962C46.8578 93.9962 47.1223 93.9962 47.3941 93.9853C56.4134 93.7336 61.4938 86.6389 63.1063 80.6422C64.4253 75.7251 63.5883 64.7822 63.552 64.3189C63.5412 64.173 63.5049 64.0308 63.4433 63.8994L63.4397 63.9031ZM60.798 80.0184C59.3993 85.22 55.0328 91.3736 47.3252 91.5888C42.0673 91.7383 40.3424 90.3632 38.3131 88.2585C37.1318 87.0292 33.4284 79.4895 30.7252 73.9816C28.1052 68.6451 26.5906 65.5883 25.9528 64.8405L25.9513 64.8387C25.8721 64.7446 25.7981 64.6566 25.9745 64.4065C26.2173 64.0636 26.808 63.7061 27.5255 63.7061C27.7864 63.7061 28.0654 63.7535 28.348 63.8666C31.613 65.1761 35.4577 68.8311 35.9251 70.2974C36.1063 70.8628 36.6752 71.2166 37.255 71.1218C38.266 70.9577 38.2805 70.1625 38.2986 68.9551C38.3095 68.3168 38.3168 67.4012 38.324 66.296C38.3349 64.3043 38.3385 61.5431 38.3349 58.0924C38.3276 52.0701 38.3023 45.5992 38.2914 44.235C38.2914 43.5383 38.5885 43.013 39.1719 42.6738C39.9293 42.236 41.0128 42.2287 41.7448 42.6555C42.3064 42.9838 42.5891 43.5127 42.5891 44.2313L42.5093 63.5639C42.5093 64.2277 43.0384 64.7676 43.6979 64.7712H43.7052C44.361 64.7712 44.8937 64.2387 44.901 63.5785L44.9263 59.774C45.3612 59.5113 46.0968 59.1721 46.8795 59.2742C47.6079 59.3691 48.2964 59.836 48.9269 60.6676V61.9662C48.9015 62.8502 48.915 64.6275 48.9188 65.1245V65.1248L48.9196 65.2527C48.9269 65.913 49.4596 66.4419 50.1118 66.4419H50.1154C50.7713 66.4419 51.304 65.902 51.304 65.2418V62.1048C51.6881 61.8057 52.7535 61.3023 53.6993 61.5066C53.9602 61.5613 54.7356 61.7291 55.1524 63.1517L55.1705 66.4565C55.1741 67.1167 55.7068 67.6529 56.3627 67.6529C57.0185 67.6529 57.5512 67.1203 57.5585 66.4601C57.5585 66.4601 57.5693 65.1141 57.573 64.4575C57.8592 64.1548 58.7615 63.593 59.6783 63.6441C60.3161 63.6842 60.8089 64.0417 61.1858 64.7421C61.2981 66.3507 61.9141 75.8674 60.798 80.0184ZM50.0357 31.2055V43.6586H50.0321H47.6441V32.4093H33.3487V43.6586H30.9607V31.2055C30.9607 30.5417 31.497 30.0018 32.1565 30.0018H48.8399C49.4994 30.0018 50.0357 30.5417 50.0357 31.2055Z" fill="url(#paint0_linear_284_117)"/>
<defs>
<linearGradient id="paint0_linear_284_117" x1="40.4982" y1="-0.00219727" x2="40.4982" y2="93.9962" gradientUnits="userSpaceOnUse">
<stop stop-color="#EC4893"/>
<stop offset="1" stop-color="#3B82F6"/>
</linearGradient>
</defs>
</svg>
