<svg width="81" height="98" viewBox="0 0 81 98" fill="none" xmlns="http://www.w3.org/2000/svg">
<path fill-rule="evenodd" clip-rule="evenodd" d="M9.34425 70.8001C8.61599 70.4784 7.61627 70.0367 7.28651 68.9183L7.29049 68.9263C6.9401 67.7379 7.62496 66.4899 8.17443 65.6552C8.19434 65.6234 8.20629 65.5996 8.21425 65.5837C8.16677 65.4415 7.93453 65.1228 7.77532 64.9043L7.77528 64.9042L7.77228 64.9001L7.7696 64.8964C6.97298 63.803 5.65585 61.9953 7.29448 58.9582C6.84417 58.6388 5.79825 58.2099 5.06246 57.9082L5.06241 57.9082L5.04481 57.9009L5.04163 57.8996C2.77681 56.9699 0.210912 55.9166 0.00793962 53.6641C-0.00798723 53.525 0.00395791 53.3819 0.0358116 53.2468C0.476963 51.3822 1.67977 49.5572 3.0701 47.4477L3.07784 47.436L3.08975 47.4179C5.17724 44.2467 7.54159 40.6549 7.67274 36.1801C8.01118 24.5149 10.6471 16.4744 15.9666 10.8663C21.9153 4.59851 31.2007 1.18439 45.1845 0.127162C51.1531 -0.329909 62.4173 0.0754931 70.8466 7.82583C77.512 13.9585 80.9283 23.3503 81 35.739C81.0796 49.3556 75.6725 55.5201 71.7227 60.0233L71.7226 60.0233C70.0264 61.955 68.5651 63.6243 68.0196 65.385C67.0879 68.4016 67.5259 70.1862 67.9519 71.9151C68.3262 73.4334 68.7124 75.0033 67.8683 76.8992C61.0038 92.3005 55.298 97.8012 36.9304 97.996H36.8826C31.3759 98 28.3299 87.9444 27.438 84.4548C22.9346 84.4786 12.626 84.1368 10.5674 80.8976C8.79558 78.1154 9.11014 75.9612 10.1852 72.0383C10.3962 71.2673 10.3405 71.2395 9.34904 70.8023L9.34425 70.8001ZM6.00421 55.4593L6.03625 55.4725H6.03227C7.87979 56.2277 9.47247 56.8835 9.91842 58.1951C10.0618 58.6124 10.1374 59.2642 9.70739 60.0035C8.702 61.729 9.17199 62.3737 9.88237 63.3482L9.88657 63.354L9.88906 63.3574C10.4627 64.1448 11.426 65.4668 10.3604 67.0861C9.98611 67.6584 9.86666 67.9803 9.82685 68.1274C9.97019 68.2148 10.225 68.3261 10.4082 68.4056C13.5219 69.7808 12.9565 71.8476 12.7136 72.7299C11.6545 76.6011 11.6664 77.7378 12.7813 79.4946C13.7568 81.0287 21.6605 81.9349 28.4453 81.8276H28.4652C29.0784 81.8276 29.616 82.2529 29.7474 82.853C30.6592 86.9468 33.5937 95.3808 36.8786 95.3808H36.8985C54.0955 95.1979 58.8935 90.5795 65.4633 75.838C65.9212 74.8126 65.754 74.0018 65.3956 72.5431C64.9338 70.6632 64.3604 68.3222 65.5071 64.6139C66.2159 62.3206 67.8484 60.4566 69.7397 58.3024C73.6179 53.8827 78.4437 48.3819 78.3681 35.7588C78.3004 24.1214 75.1668 15.3735 69.0588 9.75348C61.3622 2.67086 50.9221 2.31315 45.3796 2.73445C32.0806 3.74001 23.3408 6.89579 17.8699 12.6628C12.9565 17.8456 10.6192 25.119 10.2927 36.2517C10.1374 41.4822 7.43782 45.5799 5.2638 48.8708L5.251 48.8903C4.08174 50.6667 3.06045 52.2183 2.65976 53.5687C2.98286 54.2177 4.97873 55.0379 6.00421 55.4593ZM55.2662 45.0314H34.9276C34.2029 45.0314 33.6136 44.4432 33.6136 43.7198V23.3066C33.6136 22.5833 34.2029 21.995 34.9276 21.995H55.2662C55.9908 21.995 56.5801 22.5833 56.5801 23.3066V43.7198C56.5801 44.4432 55.9908 45.0314 55.2662 45.0314ZM53.9562 24.6182H36.2415V42.4122H53.9562V24.6182ZM37.6152 13.5849H34.9913V18.8114H37.6152V13.5849ZM52.5745 13.5849H55.1985V18.8114H52.5745V13.5849ZM49.3374 13.5849H46.7134V18.8114H49.3374V13.5849ZM40.8524 13.5849H43.4763V18.8114H40.8524V13.5849ZM30.5158 41.0728H25.3316V43.692H30.5158V41.0728ZM25.3316 23.3424H30.5158V25.9616H25.3316V23.3424ZM30.5158 29.2525H25.3316V31.8717H30.5158V29.2525ZM25.3316 35.1627H30.5158V37.7819H25.3316V35.1627ZM55.1985 48.219H52.5745V53.4455H55.1985V48.219ZM34.9913 48.219H37.6152V53.4455H34.9913V48.219ZM43.4763 48.219H40.8524V53.4455H43.4763V48.219ZM46.7134 48.219H49.3374V53.4455H46.7134V48.219ZM64.8621 23.3384H59.6779V25.9576H64.8621V23.3384ZM59.6779 41.0688H64.8621V43.688H59.6779V41.0688ZM64.8621 35.1587H59.6779V37.7779H64.8621V35.1587ZM59.6779 29.2485H64.8621V31.8678H59.6779V29.2485Z" fill="url(#paint0_linear_23_399)"/>
<defs>
<linearGradient id="paint0_linear_23_399" x1="40.5009" y1="0.000488281" x2="40.5009" y2="97.9961" gradientUnits="userSpaceOnUse">
<stop stop-color="#EC4893"/>
<stop offset="1" stop-color="#3B82F6"/>
</linearGradient>
</defs>
</svg>
