<svg width="81" height="95" viewBox="0 0 81 95" fill="none" xmlns="http://www.w3.org/2000/svg">
<path fill-rule="evenodd" clip-rule="evenodd" d="M39.3608 0H41.6427V6.28031H39.3608V0ZM23.4461 62.3396C26.0293 64.2486 27.5702 67.2816 27.5702 70.4494V71.5319C27.5702 73.5446 29.2254 75.1804 31.2615 75.1804H49.7455C51.7816 75.1804 53.4367 73.5446 53.4367 71.5319V70.4494C53.4367 67.2781 54.9776 64.2486 57.5608 62.3396C64.7841 56.9965 68.9289 48.8384 68.9289 39.9574C68.9289 24.5299 56.1792 11.9796 40.5069 11.9796C24.8346 11.9796 12.078 24.5299 12.078 39.9574C12.078 48.8384 16.2229 56.9965 23.4461 62.3396ZM40.5 14.2586C54.9153 14.2586 66.6401 25.7852 66.6401 39.9574C66.6401 48.1087 62.8346 55.5994 56.1965 60.5067C53.0351 62.8446 51.1479 66.5588 51.1479 70.4494V71.5319C51.1479 72.2858 50.5177 72.9013 49.7385 72.9013H31.2545C30.4789 72.9013 29.8452 72.2892 29.8452 71.5319V70.4494C29.8452 66.5588 27.958 62.8446 24.7966 60.5067C18.1585 55.5994 14.353 48.1087 14.353 39.9574C14.353 25.7887 26.0812 14.2586 40.4931 14.2586H40.5ZM47.6228 94.1665L49.136 88.7474C49.233 88.405 49.1603 88.0349 48.9456 87.7514C48.7309 87.4678 48.395 87.3018 48.0383 87.3018H32.8924C32.5357 87.3018 32.1999 87.4678 31.9852 87.7514C31.7705 88.0349 31.6978 88.405 31.7947 88.7474L33.3079 94.1665C33.4464 94.6576 33.8966 95 34.4056 95H46.5217C47.0342 95 47.4843 94.6576 47.6194 94.1665H47.6228ZM35.2748 92.721L34.3987 89.5843H46.5355L45.6595 92.721H35.2748ZM30.4997 82.5155H50.4311V84.7945H30.4997V82.5155ZM52.0897 77.7326H28.8376V80.0117H52.0897V77.7326ZM25.8735 44.3322C24.3603 44.3771 22.4004 43.976 21.41 43.7131L21.4031 43.7062C20.901 43.5748 20.5547 43.1218 20.5547 42.6065V36.876C20.5547 36.3608 20.9045 35.9077 21.4031 35.7763C22.3934 35.5135 24.3568 35.1158 25.87 35.1573L26.888 32.7364C25.7938 31.7093 24.6961 30.0735 24.1871 29.202C23.9274 28.7525 24.0036 28.1818 24.3741 27.8153L28.4947 23.7621C28.8549 23.4059 29.4124 23.3333 29.8556 23.5823C30.7455 24.0837 32.4215 25.1696 33.4637 26.2521L35.9534 25.2388C35.9154 23.7483 36.317 21.8254 36.5837 20.8537C36.7222 20.3591 37.1723 20.0167 37.6848 20.0167H43.5091C44.0251 20.0167 44.4752 20.3591 44.6103 20.8537C44.8769 21.8254 45.2751 23.7483 45.2405 25.2388L47.7302 26.2521C48.7724 25.1696 50.4449 24.0837 51.3349 23.5823C51.7781 23.3298 52.3321 23.4059 52.6957 23.7621L56.8163 27.8153C57.1903 28.1818 57.2665 28.7525 57.0033 29.202C56.4943 30.077 55.3966 31.7128 54.3024 32.7399L55.3239 35.1607C56.8371 35.1192 58.8005 35.5169 59.7908 35.7798C60.2929 35.9112 60.6392 36.3642 60.6392 36.8795V42.6099C60.6392 43.1252 60.2895 43.5783 59.7908 43.7097C58.8039 43.9725 56.8406 44.3737 55.3274 44.3287L54.3059 46.7495C55.4001 47.7801 56.4978 49.4159 57.0068 50.2874C57.2665 50.737 57.1903 51.3076 56.8198 51.6742L52.6992 55.7273C52.3391 56.0835 51.7815 56.1562 51.3383 55.9072C50.4519 55.4057 48.7759 54.3198 47.7336 53.2373L45.2439 54.2506C45.282 55.7412 44.8803 57.664 44.6137 58.6358C44.4752 59.1303 44.0251 59.4727 43.5126 59.4727H37.6883C37.1723 59.4727 36.7222 59.1303 36.5871 58.6358C36.3205 57.664 35.9223 55.7412 35.9569 54.2506L33.4672 53.2373C32.4215 54.3163 30.749 55.4057 29.8591 55.9072C29.4158 56.1596 28.8618 56.0835 28.4982 55.7273L24.3776 51.6742C24.0036 51.3076 23.9274 50.737 24.1906 50.2874C24.6996 49.4159 25.7973 47.7801 26.8915 46.753L25.8735 44.3322ZM26.3479 37.4916C25.6865 37.3395 24.1698 37.5055 22.847 37.7821V41.7108C24.1663 41.984 25.6865 42.15 26.3479 42.0013C26.8846 41.8802 27.4351 42.1638 27.6498 42.6722L29.3293 46.6631C29.5474 47.1818 29.3535 47.7801 28.8756 48.0741C28.3043 48.4268 27.3624 49.5854 26.6283 50.692L29.4643 53.4829C30.6001 52.7566 31.7947 51.8194 32.1548 51.2523C32.4526 50.7889 33.0413 50.6021 33.5503 50.8096L37.6086 52.4627C38.128 52.6736 38.4154 53.2304 38.2873 53.7768C38.135 54.4235 38.3046 55.9003 38.5816 57.1937H42.6157C42.8927 55.9037 43.0624 54.4235 42.9101 53.7768C42.7819 53.2304 43.0693 52.6736 43.5887 52.4627L47.6471 50.8096C48.1595 50.6021 48.7447 50.7889 49.0425 51.2523C49.4027 51.8194 50.6008 52.7601 51.7331 53.4829L54.569 50.692C53.8384 49.5854 52.8931 48.4268 52.3217 48.0741C51.8404 47.7801 51.65 47.1818 51.8681 46.6631L53.5475 42.6722C53.7588 42.1604 54.3093 41.8768 54.8495 42.0013C55.5109 42.1534 57.0276 41.9874 58.3503 41.7108V37.7821C57.031 37.5089 55.5144 37.3429 54.8495 37.4916C54.3128 37.6127 53.7622 37.3291 53.5475 36.8207L51.8681 32.8298C51.65 32.3111 51.8439 31.7128 52.3217 31.4188C52.8931 31.0661 53.8349 29.9075 54.569 28.8009L51.7331 26.01C50.5973 26.7363 49.4027 27.6735 49.0425 28.2406C48.7447 28.704 48.1561 28.8908 47.6471 28.6833L43.5887 27.0302C43.0693 26.8193 42.7819 26.2625 42.9101 25.7161C43.0624 25.0693 42.8927 23.5926 42.6157 22.2992H38.5816C38.3046 23.5926 38.135 25.0693 38.2873 25.7161C38.4154 26.2625 38.128 26.8193 37.6086 27.0302L33.5503 28.6833C33.0378 28.8942 32.4492 28.7075 32.1548 28.2406C31.7947 27.6735 30.5966 26.7328 29.4643 26.01L26.6283 28.8009C27.359 29.9075 28.3043 31.0661 28.8756 31.4188C29.357 31.7128 29.5474 32.3111 29.3293 32.8298L27.6498 36.8207C27.4386 37.3325 26.888 37.6127 26.3479 37.4916ZM40.6004 49.4643C46.0369 49.4643 50.4622 45.1034 50.4622 39.7464C50.4622 38.3735 50.1783 37.0455 49.6139 35.8005L47.5328 36.7377C47.9622 37.6888 48.1803 38.6986 48.1803 39.7464C48.1803 43.848 44.7799 47.1853 40.6004 47.1853C36.4209 47.1853 33.0205 43.848 33.0205 39.7464C33.0205 35.6449 36.4209 32.3076 40.6004 32.3076C42.4461 32.3076 44.2259 32.9647 45.6075 34.1613L47.1 32.439C45.3028 30.8828 42.9932 30.0286 40.597 30.0286C35.157 30.0286 30.7351 34.3895 30.7351 39.7464C30.7351 45.1034 35.1605 49.4643 40.597 49.4643H40.6004ZM21.2234 4.77917L19.2548 5.93175L22.4473 11.3706L24.4159 10.218L21.2234 4.77917ZM4.85184 20.9509L5.97968 18.9697L11.5095 22.1096L10.3816 24.0908L4.85184 20.9509ZM6.38526 38.7643H0V41.0433H6.38526V38.7643ZM4.88439 58.844L10.4142 55.7041L11.542 57.6853L6.01223 60.8252L4.88439 58.844ZM59.7795 4.78217L56.5871 10.221L58.5557 11.3736L61.7481 5.93475L59.7795 4.78217ZM69.4918 22.1075L75.021 18.9667L76.1492 20.9477L70.62 24.0886L69.4918 22.1075ZM81.0035 38.7643H74.6182V41.0433H81.0035V38.7643ZM69.4595 57.6789L70.5874 55.6977L76.1172 58.8376L74.9893 60.8188L69.4595 57.6789Z" fill="url(#paint0_linear_23_398)"/>
<defs>
<linearGradient id="paint0_linear_23_398" x1="40.5017" y1="0" x2="40.5017" y2="95" gradientUnits="userSpaceOnUse">
<stop stop-color="#EC4893"/>
<stop offset="1" stop-color="#3B82F6"/>
</linearGradient>
</defs>
</svg>
