<svg width="72" height="70" viewBox="0 0 72 70" fill="none" xmlns="http://www.w3.org/2000/svg">
<g clip-path="url(#clip0_23_557)">
<path d="M1.5445 26.4146C2.13166 26.8729 2.82178 27.1479 3.54251 27.2256L4.69457 36.6193C3.00544 37.2498 1.89791 38.983 2.12887 40.8579C2.25966 41.9245 2.79673 42.8772 3.64269 43.5355C4.34672 44.0826 5.19546 44.3743 6.06924 44.3743C6.23343 44.3743 6.40039 44.3632 6.56736 44.3437C7.27696 44.2548 7.91699 43.9799 8.45128 43.5799L13.9973 48.9878C13.6021 49.7016 13.4157 50.5432 13.5242 51.4154C13.655 52.482 14.1921 53.4347 15.038 54.093C15.7421 54.6401 16.5908 54.9318 17.4646 54.9318C17.6288 54.9318 17.7957 54.9207 17.9627 54.9012C19.8967 54.6596 21.3354 53.0486 21.4439 51.1571L32.3773 49.7961C32.6166 50.5738 33.0842 51.2571 33.7381 51.7654C34.4421 52.3125 35.2909 52.6042 36.1647 52.6042C36.3288 52.6042 36.4958 52.5931 36.6628 52.5736C37.1553 52.5125 37.6117 52.3598 38.0263 52.1403L41.9082 55.9484C41.1374 56.7844 40.7228 57.9426 40.8703 59.1592C41.0011 60.2258 41.5381 61.1757 42.3841 61.834C43.0881 62.3812 43.9369 62.6728 44.8106 62.6728C44.9748 62.6728 45.1418 62.6617 45.3088 62.6423C46.4413 62.5006 47.4014 61.8896 48.0275 61.0285L57.1994 65.2254C57.1187 65.6337 57.0965 66.0587 57.1521 66.492C57.2829 67.5585 57.82 68.5085 58.6659 69.1668C59.37 69.7139 60.2187 70.0056 61.0925 70.0056C61.2567 70.0056 61.4236 69.9945 61.5906 69.975C63.7667 69.7028 65.3195 67.703 65.0523 65.5115C64.9216 64.4449 64.3845 63.495 63.5385 62.8367C63.0321 62.4423 62.4505 62.184 61.8355 62.0673L61.1454 56.4428C63.0655 55.9595 64.3761 54.0985 64.1285 52.0737C64.0366 51.3237 63.7417 50.6349 63.2825 50.0627L65.2722 46.9074C65.8343 47.1991 66.4521 47.3546 67.0865 47.3546C67.2507 47.3546 67.4177 47.3435 67.5846 47.324C69.7608 47.0518 71.3135 45.052 71.0464 42.8605C70.9156 41.7939 70.3785 40.8412 69.5326 40.1829C69.143 39.8802 68.7089 39.658 68.2497 39.5191L69.0762 23.4259C70.8377 22.8371 72.0064 21.0595 71.7699 19.1374C71.6391 18.0708 71.102 17.1209 70.2561 16.4626C69.4185 15.8099 68.3805 15.5238 67.3314 15.6543C66.5717 15.7488 65.8927 16.0571 65.3362 16.507L51.531 5.6468C51.8232 4.99963 51.9512 4.26913 51.8566 3.51641C51.7258 2.44983 51.1887 1.49713 50.3427 0.838846C49.5051 0.188897 48.4672 -0.0999688 47.4181 0.0305764C45.5926 0.258336 44.2096 1.70544 43.9703 3.45808L28.3117 3.3192C28.0641 2.58037 27.6077 1.93043 26.9788 1.44158C26.1412 0.791627 25.1032 0.502761 24.0541 0.633306C21.878 0.905507 20.3253 2.90535 20.5924 5.09684C20.6453 5.52736 20.7677 5.93566 20.9458 6.31619L6.04142 19.8207C5.28173 19.3568 4.39403 19.1624 3.49799 19.2735C1.32188 19.5457 -0.230895 21.5455 0.036249 23.737C0.167038 24.8036 0.704108 25.7535 1.55006 26.4118L1.5445 26.4146ZM22.1006 7.77441C22.4847 8.07438 22.9132 8.29381 23.364 8.43269L23.1804 18.0125C21.5051 18.3791 20.2724 19.7901 20.0776 21.4622L7.71385 21.8788C7.61645 21.6094 7.49123 21.3511 7.33818 21.1095L22.0756 7.75496C22.0756 7.75496 22.0895 7.76885 22.0979 7.77441H22.1006ZM45.3922 7.10501C45.4173 7.12446 45.4395 7.14946 45.4674 7.1689C45.779 7.41055 46.1158 7.59942 46.4719 7.7383L45.0806 21.3317C43.7226 21.5316 42.6178 22.4038 42.0641 23.5732L27.8999 21.0011C27.8665 20.8567 27.8248 20.7178 27.7747 20.5789L45.3895 7.10779L45.3922 7.10501ZM50.4123 7.10224L64.2064 17.9514C64.07 18.2458 63.9671 18.5569 63.9059 18.8819L49.11 23.301C48.854 22.851 48.5089 22.451 48.0887 22.1233C47.727 21.8427 47.329 21.6344 46.9088 21.4928L48.2891 7.9855C48.3225 7.98272 48.3559 7.97995 48.3893 7.97717C49.1601 7.87995 49.8502 7.56609 50.4123 7.10224ZM66.4131 39.4052C64.8297 39.6802 63.6109 40.8746 63.2352 42.3717L53.298 40.6218C53.2925 40.5357 53.2897 40.4496 53.2785 40.3635C53.1923 39.6552 52.9223 38.9997 52.5049 38.4442L66.1042 23.2371C66.4604 23.4093 66.8361 23.5259 67.2257 23.5843L66.4131 39.4052ZM61.8271 48.9184C61.1621 48.6128 60.4274 48.4906 59.6844 48.5823C59.1557 48.6489 58.6659 48.8184 58.229 49.0656L52.619 43.0938C52.761 42.8827 52.8834 42.6577 52.9836 42.4244L63.2074 44.2243C63.327 44.7576 63.5497 45.252 63.8641 45.6881L61.8271 48.9184ZM38.6051 45.4242C37.7675 44.7742 36.7295 44.4854 35.6805 44.6159C35.213 44.6743 34.7788 44.8159 34.3809 45.0187L28.9573 38.1331C29.3998 37.3943 29.6141 36.5055 29.5 35.5861C29.4749 35.375 29.4276 35.1722 29.372 34.9723L42.91 28.1895C43.0074 28.2839 43.1104 28.3728 43.2189 28.4561C43.7282 28.8533 44.3125 29.1116 44.9303 29.2255L47.3457 37.3832C46.0017 38.1637 45.178 39.6997 45.3811 41.344C45.4173 41.6439 45.4896 41.9328 45.587 42.2078L39.0949 45.8825C38.9446 45.7186 38.7832 45.5659 38.6051 45.427V45.4242ZM18.3773 47.0241C17.9265 46.9185 17.4562 46.888 16.9804 46.9463C16.3264 47.0268 15.7309 47.2685 15.2217 47.6185L9.62559 42.1633C9.85935 41.6995 10.0013 41.1884 10.0402 40.6524L22.0339 37.9498C22.2398 38.3386 22.5069 38.6942 22.8325 38.9997L18.3746 47.0241H18.3773ZM20.2891 23.2843C20.5423 23.9898 20.9875 24.6147 21.5914 25.0841C22.109 25.4869 22.7073 25.7508 23.3362 25.8619L24.0792 32.3586C23.4364 32.6169 22.8826 33.0335 22.4596 33.5613L7.73889 24.5425C7.83072 24.2731 7.89751 23.9898 7.92812 23.7009L20.2919 23.2843H20.2891ZM27.8915 22.8565L41.6745 25.3591C41.6745 25.498 41.6856 25.6369 41.7023 25.7758C41.7385 26.073 41.8108 26.3618 41.9082 26.6396L28.4787 33.3696C28.3284 33.2057 28.1643 33.0502 27.9862 32.9085C27.3712 32.4308 26.6504 32.1502 25.8935 32.0864L25.17 25.7508C26.5363 25.3397 27.5632 24.2203 27.8915 22.8593V22.8565ZM45.3895 23.1287C45.4785 23.1176 45.5676 23.1121 45.6566 23.1121C46.1269 23.1121 46.5805 23.2676 46.9589 23.562C47.4181 23.9203 47.7103 24.437 47.7798 25.0175C47.9245 26.2063 47.0869 27.2951 45.9126 27.4423C45.3505 27.5145 44.7939 27.359 44.3431 27.009C43.884 26.6507 43.5918 26.1341 43.5222 25.5536C43.3775 24.362 44.2151 23.276 45.3895 23.1287ZM49.6192 25.0564L64.0032 20.7623C64.1452 21.2428 64.3734 21.6872 64.6767 22.0816L51.0997 37.2637C50.4819 36.9526 49.7973 36.8165 49.1016 36.8582L46.8087 29.1144C48.5423 28.5839 49.7278 26.9146 49.622 25.0591L49.6192 25.0564ZM24.2406 37.797C23.7814 37.4387 23.4892 36.9221 23.4197 36.3416C23.275 35.1528 24.1126 34.064 25.2869 33.9168C25.3759 33.9057 25.465 33.9001 25.554 33.9001C26.0243 33.9001 26.4779 34.0557 26.8564 34.3501C27.3155 34.7084 27.6077 35.225 27.6773 35.8055C27.822 36.9943 26.9844 38.0831 25.8101 38.2303C25.2479 38.2998 24.6914 38.147 24.2406 37.797ZM47.1982 41.1162C47.0535 39.9274 47.8911 38.8386 49.0655 38.6914C49.1545 38.6803 49.2436 38.6747 49.3326 38.6747C49.8029 38.6747 50.2565 38.8303 50.6349 39.1247C51.0941 39.483 51.3863 39.9996 51.4558 40.5801C51.6005 41.7689 50.7629 42.8577 49.5886 43.0049C49.0265 43.0744 48.47 42.9216 48.0192 42.5716C47.56 42.2133 47.2678 41.6967 47.1982 41.1162ZM26.1551 21.6511C26.3026 22.8399 25.465 23.9287 24.2879 24.0759C23.7258 24.1453 23.1664 23.9926 22.7184 23.6426C22.2593 23.2843 21.9671 22.7677 21.8975 22.1872C21.7528 20.9956 22.5904 19.9096 23.7647 19.7623C23.8538 19.7512 23.9428 19.7457 24.0319 19.7457C24.5022 19.7457 24.9557 19.9012 25.3342 20.1956C25.7934 20.5539 26.0855 21.0706 26.1551 21.6511ZM6.76215 26.0952L21.6638 35.2222C21.597 35.5305 21.5636 35.85 21.5719 36.1749L9.75082 38.8386C9.48924 38.197 9.06905 37.6331 8.50971 37.1971C7.92255 36.7388 7.23243 36.4666 6.5117 36.386L5.35964 26.9923C5.89393 26.7923 6.36978 26.484 6.76215 26.0924V26.0952ZM6.33639 42.5216C5.77427 42.5911 5.21772 42.4383 4.76692 42.0883C4.30777 41.73 4.01558 41.2134 3.94601 40.6329C3.80131 39.4441 4.63891 38.3553 5.81323 38.2081C5.90228 38.197 5.99133 38.1914 6.08038 38.1914C6.55066 38.1914 7.00425 38.347 7.3827 38.6414C7.84185 38.9997 8.13404 39.5163 8.20361 40.0968C8.34831 41.2856 7.51071 42.3744 6.33639 42.5216ZM17.7317 53.0764C17.1696 53.1458 16.6131 52.993 16.1623 52.6431C15.7031 52.2848 15.4109 51.7681 15.3414 51.1876C15.1967 49.9988 16.0343 48.91 17.2086 48.7628C17.2976 48.7517 17.3867 48.7462 17.4757 48.7462C17.946 48.7462 18.3996 48.9017 18.7781 49.1961C19.2372 49.5544 19.5294 50.071 19.599 50.6516C19.7437 51.8404 18.9061 52.9292 17.7317 53.0764ZM20.0164 47.849L24.4242 39.9135C24.786 40.0218 25.1617 40.0802 25.5429 40.0802C25.7071 40.0802 25.8741 40.0691 26.041 40.0496C26.6393 39.9746 27.1903 39.7663 27.6689 39.4608L32.9812 46.2075C32.6027 46.7185 32.3467 47.3157 32.2438 47.9601L21.1295 49.3461C20.8846 48.7712 20.5061 48.2629 20.0192 47.8518L20.0164 47.849ZM36.4318 50.746C35.8697 50.8154 35.3131 50.6627 34.8623 50.3127C34.4032 49.9544 34.111 49.4378 34.0414 48.8573C33.8967 47.6657 34.7343 46.5797 35.9086 46.4324C35.9977 46.4213 36.0867 46.4158 36.173 46.4158C36.6433 46.4158 37.0997 46.5713 37.4781 46.8657C37.9373 47.2241 38.2294 47.7407 38.299 48.3212C38.4437 49.5128 37.6061 50.5988 36.4318 50.746ZM45.0778 60.8146C44.5157 60.8841 43.9591 60.7313 43.5083 60.3813C43.0492 60.023 42.757 59.5064 42.6874 58.9259C42.5427 57.7371 43.3803 56.6483 44.5546 56.5011C44.6437 56.49 44.7327 56.4844 44.8218 56.4844C45.2921 56.4844 45.7484 56.64 46.1269 56.9344C46.586 57.2927 46.8782 57.8093 46.9478 58.3898C47.0925 59.5786 46.2549 60.6674 45.0806 60.8146H45.0778ZM44.3264 54.6846C44.0231 54.7235 43.7365 54.7957 43.461 54.8957L39.401 50.9126C39.9631 50.1238 40.2469 49.1322 40.1189 48.099C40.0939 47.8851 40.0466 47.6796 39.9881 47.4768L46.5805 43.7438C46.6807 43.8382 46.7836 43.9299 46.8921 44.0132C47.5962 44.5604 48.4449 44.852 49.3215 44.852C49.4857 44.852 49.6526 44.8409 49.8196 44.8215C50.3483 44.7548 50.8381 44.5854 51.275 44.3382L56.885 50.3099C56.3618 51.0849 56.1002 52.0431 56.2227 53.043C56.2227 53.0653 56.231 53.0875 56.2338 53.1069L48.0386 56.3094C47.8188 56.0039 47.5572 55.7289 47.2511 55.4928C46.4135 54.8429 45.3755 54.554 44.3264 54.6846ZM48.7371 59.3314C48.8011 58.9565 48.815 58.5648 48.7649 58.1676C48.7594 58.1121 48.7454 58.0565 48.7371 58.001L56.8905 54.8151C57.1215 55.154 57.4054 55.4595 57.7365 55.7178C58.204 56.0817 58.7355 56.3289 59.2948 56.4567L59.9933 62.1506C59.1641 62.3923 58.4545 62.8867 57.9508 63.545L48.7399 59.3286L48.7371 59.3314ZM63.2241 65.7254C63.3688 66.9142 62.5312 68.003 61.3569 68.1502C60.7947 68.2196 60.2382 68.0668 59.7874 67.7169C59.3282 67.3586 59.036 66.8419 58.9665 66.2614C58.8218 65.0726 59.6594 63.9838 60.8337 63.8366C60.9227 63.8255 61.0118 63.82 61.1008 63.82C61.5711 63.82 62.0275 63.9755 62.406 64.2699C62.8651 64.6282 63.1573 65.1449 63.2269 65.7254H63.2241ZM60.4358 54.7096C59.8737 54.779 59.3143 54.6262 58.8663 54.2763C58.4071 53.918 58.115 53.4013 58.0454 52.8208C57.9007 51.632 58.7383 50.5432 59.9126 50.396C60.0017 50.3849 60.0907 50.3794 60.1798 50.3794C60.65 50.3794 61.1064 50.5349 61.4821 50.8293C61.9412 51.1876 62.2334 51.7043 62.303 52.2848C62.4505 53.4736 61.6129 54.5624 60.4358 54.7096ZM69.2209 43.0744C69.3656 44.2632 68.528 45.352 67.3537 45.4992C66.7916 45.5686 66.235 45.4159 65.7842 45.0659C65.3251 44.7076 65.0329 44.191 64.9633 43.6104C64.8186 42.4189 65.6562 41.3329 66.8305 41.1856C66.9196 41.1745 67.0086 41.169 67.0977 41.169C67.5679 41.169 68.0215 41.3245 68.4 41.6189C68.8591 41.9772 69.1513 42.4939 69.2209 43.0744ZM67.554 17.4653C67.6431 17.4542 67.7321 17.4486 67.8212 17.4486C68.2915 17.4486 68.7478 17.6042 69.1263 17.8986C69.5854 18.2569 69.8776 18.7735 69.9472 19.354C70.0919 20.5428 69.2543 21.6316 68.08 21.7789C67.5179 21.8483 66.9613 21.6955 66.5105 21.3456C66.0513 20.9872 65.7592 20.4706 65.6896 19.8901C65.5449 18.6985 66.3825 17.6125 67.5568 17.4653H67.554ZM47.6407 1.8471C47.7297 1.83599 47.8188 1.83043 47.9078 1.83043C48.3781 1.83043 48.8317 1.98598 49.2102 2.2804C49.6693 2.6387 49.9615 3.15533 50.0311 3.73584C50.1786 4.92463 49.341 6.01343 48.1639 6.16065C47.6017 6.23008 47.0452 6.07732 46.5944 5.72735C46.1352 5.36904 45.843 4.85242 45.7735 4.27191C45.6288 3.08311 46.4664 1.99431 47.6407 1.8471ZM28.4759 5.15239L44.1344 5.29127C44.1762 5.41348 44.2235 5.5357 44.2764 5.65513L26.784 19.0318C26.6838 18.9346 26.5781 18.843 26.4668 18.7569C26.0299 18.418 25.5373 18.1791 25.017 18.0458L25.1978 8.55212C26.9371 8.2577 28.2422 6.85226 28.4759 5.15517V5.15239ZM24.2768 2.45261C24.3658 2.4415 24.4549 2.43594 24.5439 2.43594C25.0142 2.43594 25.4678 2.59148 25.8462 2.88591C26.3054 3.24421 26.5976 3.76084 26.6671 4.34135C26.8118 5.53014 25.9742 6.61894 24.7999 6.76615C24.2378 6.83559 23.6813 6.68283 23.2304 6.33285C22.7713 5.97455 22.4791 5.45792 22.4095 4.87741C22.2648 3.68584 23.1024 2.59982 24.2768 2.45261ZM3.71782 21.0928C3.80687 21.0817 3.89592 21.0761 3.98497 21.0761C4.45525 21.0761 4.90884 21.2317 5.28729 21.5261C5.74645 21.8844 6.03863 22.401 6.1082 22.9815C6.25291 24.1703 5.4153 25.2591 4.24098 25.4063C3.67886 25.4758 3.12232 25.323 2.67151 24.973C2.21236 24.6147 1.92017 24.0981 1.8506 23.5176C1.7059 22.3288 2.5435 21.24 3.71782 21.0928Z" fill="white"/>
</g>
<defs>
<clipPath id="clip0_23_557">
<rect width="71.7949" height="70" fill="white"/>
</clipPath>
</defs>
</svg>
