<svg width="70" height="70" viewBox="0 0 70 70" fill="none" xmlns="http://www.w3.org/2000/svg">
<path d="M61.25 30.625H65.625V70H61.25V30.625ZM17.5 45.9375L21.875 41.5625V70H17.5V45.9375ZM8.75 54.6875L13.125 50.3125V70H8.75V54.6875ZM26.25 37.1875L30.625 32.8125V70H26.25V37.1875ZM35 32.8125L39.375 37.1875V69.9658H35V32.8125ZM45.9375 43.75L48.125 41.5625V70H43.75V41.5625L45.9375 43.75ZM52.5 37.1875L56.875 32.8125V70H52.5V37.1875ZM0 63.4375L4.375 59.0625V70H0V63.4375ZM70 8.75V26.25H65.625V16.2354L45.9375 35.8887L32.8125 22.7637L0 55.6104V49.3896L32.8125 16.6113L45.9375 29.7363L62.5146 13.125H52.5V8.75H70Z" fill="white"/>
</svg>
