<svg width="80" height="78" viewBox="0 0 80 78" fill="none" xmlns="http://www.w3.org/2000/svg">
<g clip-path="url(#clip0_10_391)">
<path d="M1.72108 29.4334C2.37534 29.9441 3.14434 30.2505 3.94744 30.3372L5.23116 40.8044C3.34899 41.507 2.11488 43.4383 2.37224 45.5274C2.51798 46.7159 3.11643 47.7774 4.05906 48.511C4.84356 49.1207 5.7893 49.4456 6.76294 49.4456C6.94589 49.4456 7.13193 49.4333 7.31798 49.4116C8.10868 49.3125 8.82186 49.0061 9.4172 48.5605L15.597 54.5864C15.1567 55.3818 14.949 56.3196 15.0699 57.2914C15.2157 58.4799 15.8141 59.5415 16.7567 60.275C17.5412 60.8847 18.487 61.2097 19.4606 61.2097C19.6436 61.2097 19.8296 61.1973 20.0157 61.1757C22.1707 60.9064 23.7738 59.1113 23.8947 57.0036L36.0777 55.4871C36.3443 56.3537 36.8653 57.115 37.5939 57.6814C38.3784 58.2911 39.3242 58.6161 40.2978 58.6161C40.4808 58.6161 40.6668 58.6037 40.8529 58.5821C41.4017 58.514 41.9102 58.3437 42.3722 58.0992L46.6978 62.3425C45.8389 63.2741 45.3769 64.5647 45.5412 65.9203C45.687 67.1088 46.2854 68.1672 47.2281 68.9008C48.0126 69.5105 48.9583 69.8354 49.9319 69.8354C50.1149 69.8354 50.3009 69.8231 50.487 69.8014C51.749 69.6436 52.8188 68.9627 53.5164 68.0032L63.7366 72.6797C63.6467 73.1347 63.6219 73.6082 63.6839 74.0911C63.8296 75.2795 64.4281 76.338 65.3707 77.0715C66.1552 77.6813 67.1009 78.0062 68.0746 78.0062C68.2575 78.0062 68.4436 77.9938 68.6296 77.9722C71.0544 77.6689 72.7846 75.4405 72.487 72.9985C72.3412 71.8101 71.7428 70.7516 70.8001 70.0181C70.2358 69.5786 69.5877 69.2907 68.9025 69.1607L68.1335 62.8934C70.273 62.3549 71.7335 60.2812 71.4575 58.025C71.3552 57.1893 71.0265 56.4217 70.5149 55.7842L72.7319 52.2683C73.3583 52.5932 74.0467 52.7666 74.7536 52.7666C74.9366 52.7666 75.1226 52.7542 75.3087 52.7325C77.7335 52.4292 79.4637 50.2008 79.166 47.7589C79.0203 46.5704 78.4219 45.5088 77.4792 44.7753C77.0451 44.4379 76.5614 44.1903 76.0498 44.0356L76.9707 26.1032C78.9335 25.4471 80.2358 23.4663 79.9722 21.3245C79.8265 20.1361 79.2281 19.0776 78.2854 18.3441C77.3521 17.6167 76.1955 17.298 75.0265 17.4434C74.18 17.5486 73.4234 17.8922 72.8032 18.3936L57.4203 6.29216C57.7459 5.57103 57.8885 4.75704 57.7831 3.9183C57.6374 2.72982 57.0389 1.66824 56.0963 0.934728C55.1629 0.210499 54.0063 -0.11138 52.8374 0.0340848C50.8032 0.287874 49.2622 1.90037 48.9955 3.85331L31.5474 3.69856C31.2715 2.87529 30.7629 2.15106 30.0622 1.60634C29.1288 0.882113 27.9722 0.560234 26.8033 0.705698C24.3784 1.00901 22.6482 3.2374 22.9459 5.67935C23.0048 6.15907 23.1412 6.61404 23.3397 7.03805L6.73193 22.0859C5.88542 21.569 4.89627 21.3524 3.89782 21.4762C1.47302 21.7795 -0.257215 24.0079 0.0404598 26.4498C0.186196 27.6383 0.784646 28.6968 1.72728 29.4303L1.72108 29.4334ZM24.6265 8.66292C25.0544 8.99718 25.5319 9.24169 26.0343 9.39644L25.8296 20.0711C23.9629 20.4796 22.5893 22.0519 22.3722 23.915L8.5955 24.3793C8.48697 24.0791 8.34744 23.7912 8.17689 23.522L24.5986 8.64126C24.5986 8.64126 24.6141 8.65673 24.6234 8.66292H24.6265ZM50.58 7.91703C50.6079 7.93869 50.6327 7.96655 50.6637 7.98821C51.011 8.25748 51.3862 8.46794 51.7831 8.62269L50.2327 23.7696C48.7195 23.9924 47.4885 24.9643 46.8715 26.2672L31.0885 23.4013C31.0513 23.2403 31.0048 23.0856 30.949 22.9308L50.5769 7.92013L50.58 7.91703ZM56.1738 7.91394L71.5443 20.003C71.3924 20.331 71.2777 20.6777 71.2094 21.0398L54.7226 25.9639C54.4374 25.4625 54.0529 25.0169 53.5846 24.6517C53.1815 24.3391 52.7381 24.1069 52.2699 23.9491L53.8079 8.89814C53.8451 8.89505 53.8823 8.89195 53.9195 8.88886C54.7784 8.78053 55.5474 8.4308 56.1738 7.91394ZM74.0033 43.9087C72.2389 44.2151 70.8808 45.5459 70.4622 47.2141L59.3893 45.2643C59.3831 45.1684 59.38 45.0724 59.3676 44.9765C59.2715 44.1872 58.9707 43.4568 58.5056 42.8378L73.6591 25.8927C74.056 26.0846 74.4746 26.2146 74.9087 26.2796L74.0033 43.9087ZM68.8932 54.509C68.1521 54.1686 67.3335 54.0324 66.5056 54.1346C65.9164 54.2088 65.3707 54.3976 64.8839 54.6731L58.6327 48.0188C58.7908 47.7836 58.9273 47.5329 59.0389 47.273L70.4312 49.2785C70.5645 49.8727 70.8126 50.4237 71.1629 50.9096L68.8932 54.509ZM43.0172 50.6155C42.0839 49.8913 40.9273 49.5694 39.7583 49.7149C39.2374 49.7799 38.7536 49.9377 38.3102 50.1637L32.2668 42.4912C32.7598 41.6679 32.9986 40.6775 32.8715 39.6531C32.8436 39.4179 32.7908 39.1919 32.7288 38.9691L47.8141 31.4111C47.9226 31.5163 48.0374 31.6154 48.1583 31.7082C48.7257 32.1508 49.3769 32.4387 50.0653 32.5656L52.7567 41.6555C51.2591 42.5252 50.3412 44.2368 50.5676 46.069C50.6079 46.4033 50.6885 46.7251 50.7971 47.0315L43.5629 51.1262C43.3955 50.9436 43.2156 50.7734 43.0172 50.6186V50.6155ZM20.4777 52.3983C19.9753 52.2807 19.4513 52.2466 18.9211 52.3116C18.1924 52.4014 17.5288 52.6706 16.9614 53.0606L10.7257 46.982C10.9862 46.4652 11.1443 45.8957 11.1877 45.2983L24.5521 42.2869C24.7815 42.7202 25.0792 43.1164 25.442 43.4568L20.4746 52.3983H20.4777ZM22.6079 25.9454C22.8901 26.7315 23.3862 27.4279 24.0591 27.9509C24.6358 28.3997 25.3025 28.6937 26.0033 28.8175L26.8312 36.0567C26.1149 36.3445 25.4978 36.8088 25.0265 37.3968L8.62341 27.3474C8.72573 27.0472 8.80015 26.7315 8.83426 26.4096L22.611 25.9454H22.6079ZM31.0792 25.4687L46.4374 28.2573C46.4374 28.4121 46.4498 28.5668 46.4684 28.7216C46.5087 29.0527 46.5893 29.3746 46.6978 29.6841L31.7335 37.1833C31.566 37.0007 31.3831 36.8274 31.1846 36.6695C30.4994 36.1372 29.6963 35.8246 28.8529 35.7534L28.0467 28.6937C29.5691 28.2357 30.7133 26.9884 31.0792 25.4718V25.4687ZM50.5769 25.772C50.6761 25.7597 50.7753 25.7535 50.8746 25.7535C51.3986 25.7535 51.904 25.9268 52.3257 26.2549C52.8374 26.6541 53.1629 27.2298 53.2405 27.8766C53.4017 29.2013 52.4684 30.4145 51.1598 30.5786C50.5335 30.659 49.9133 30.4857 49.411 30.0957C48.8994 29.6965 48.5738 29.1208 48.4963 28.474C48.335 27.1462 49.2684 25.9361 50.5769 25.772ZM55.2901 27.92L71.318 23.1351C71.4761 23.6705 71.7304 24.1657 72.0684 24.6052L56.9397 41.5225C56.2513 41.1758 55.4885 41.0242 54.7133 41.0706L52.1583 32.4417C54.0901 31.8506 55.411 29.9905 55.2932 27.9231L55.2901 27.92ZM27.011 42.1167C26.4994 41.7174 26.1738 41.1418 26.0963 40.4949C25.935 39.1703 26.8684 37.957 28.1769 37.793C28.2761 37.7806 28.3753 37.7744 28.4746 37.7744C28.9986 37.7744 29.504 37.9477 29.9257 38.2758C30.4374 38.6751 30.7629 39.2507 30.8405 39.8976C31.0017 41.2222 30.0684 42.4355 28.7598 42.5995C28.1335 42.6769 27.5133 42.5067 27.011 42.1167ZM52.5924 45.8152C52.4312 44.4906 53.3645 43.2773 54.673 43.1133C54.7722 43.1009 54.8715 43.0947 54.9707 43.0947C55.4947 43.0947 56.0001 43.268 56.4219 43.5961C56.9335 43.9954 57.2591 44.571 57.3366 45.2179C57.4978 46.5425 56.5645 47.7558 55.256 47.9198C54.6296 47.9972 54.0094 47.827 53.5071 47.437C52.9955 47.0377 52.6699 46.4621 52.5924 45.8152ZM29.1443 24.1255C29.3087 25.4502 28.3753 26.6634 27.0637 26.8274C26.4374 26.9048 25.8141 26.7346 25.3149 26.3446C24.8033 25.9454 24.4777 25.3697 24.4002 24.7228C24.2389 23.3951 25.1722 22.1849 26.4808 22.0209C26.58 22.0085 26.6792 22.0023 26.7784 22.0023C27.3025 22.0023 27.8079 22.1757 28.2296 22.5037C28.7412 22.903 29.0668 23.4787 29.1443 24.1255ZM7.53503 29.0775L24.1397 39.2476C24.0653 39.5912 24.0281 39.9471 24.0374 40.3092L10.8653 43.2773C10.5738 42.5624 10.1056 41.9341 9.48232 41.4482C8.82806 40.9375 8.05906 40.6342 7.25596 40.5444L5.97224 30.0772C6.56759 29.8543 7.09782 29.5108 7.53503 29.0744V29.0775ZM7.06062 47.3813C6.43426 47.4586 5.8141 47.2884 5.31178 46.8985C4.80015 46.4992 4.47457 45.9235 4.39705 45.2767C4.23581 43.952 5.16914 42.7388 6.47767 42.5748C6.57689 42.5624 6.67612 42.5562 6.77534 42.5562C7.29937 42.5562 7.8048 42.7295 8.22651 43.0576C8.73813 43.4568 9.06372 44.0325 9.14124 44.6793C9.30247 46.004 8.36914 47.2172 7.06062 47.3813ZM19.7583 59.1422C19.1319 59.2196 18.5118 59.0494 18.0095 58.6594C17.4978 58.2602 17.1722 57.6845 17.0947 57.0377C16.9335 55.713 17.8668 54.4998 19.1753 54.3357C19.2746 54.3233 19.3738 54.3172 19.473 54.3172C19.997 54.3172 20.5025 54.4905 20.9242 54.8185C21.4358 55.2178 21.7614 55.7935 21.8389 56.4403C22.0002 57.765 21.0668 58.9782 19.7583 59.1422ZM22.304 53.3175L27.2157 44.4751C27.6188 44.5958 28.0374 44.6608 28.4622 44.6608C28.6451 44.6608 28.8312 44.6484 29.0172 44.6267C29.6839 44.5432 30.2978 44.311 30.8312 43.9706L36.7505 51.4883C36.3288 52.0578 36.0436 52.7232 35.9288 53.4413L23.5443 54.9857C23.2715 54.345 22.8498 53.7786 22.3071 53.3206L22.304 53.3175ZM40.5955 56.5455C39.9691 56.6229 39.349 56.4527 38.8467 56.0627C38.335 55.6635 38.0095 55.0878 37.9319 54.441C37.7707 53.1132 38.704 51.9031 40.0126 51.739C40.1118 51.7266 40.211 51.7205 40.3071 51.7205C40.8312 51.7205 41.3397 51.8938 41.7614 52.2218C42.273 52.6211 42.5986 53.1968 42.6761 53.8436C42.8374 55.1714 41.904 56.3815 40.5955 56.5455ZM50.2296 67.7649C49.6032 67.8423 48.9831 67.672 48.4808 67.2821C47.9691 66.8828 47.6436 66.3072 47.566 65.6603C47.4048 64.3356 48.3381 63.1224 49.6467 62.9584C49.7459 62.946 49.8451 62.9398 49.9443 62.9398C50.4684 62.9398 50.9769 63.1131 51.3986 63.4412C51.9102 63.8404 52.2358 64.4161 52.3133 65.063C52.4746 66.3876 51.5412 67.6009 50.2327 67.7649H50.2296ZM49.3924 60.9342C49.0544 60.9776 48.735 61.058 48.4281 61.1695L43.904 56.7313C44.5304 55.8523 44.8467 54.7474 44.704 53.596C44.6761 53.3577 44.6234 53.1287 44.5583 52.9027L51.904 48.7431C52.0157 48.8483 52.1304 48.9504 52.2513 49.0433C53.0358 49.653 53.9815 49.978 54.9583 49.978C55.1412 49.978 55.3273 49.9656 55.5133 49.9439C56.1025 49.8696 56.6482 49.6809 57.135 49.4054L63.3862 56.0596C62.8032 56.9231 62.5118 57.9909 62.6482 59.1051C62.6482 59.1299 62.6575 59.1546 62.6606 59.1763L53.5288 62.7448C53.2839 62.4044 52.9924 62.098 52.6513 61.8349C51.718 61.1107 50.5614 60.7888 49.3924 60.9342ZM54.3071 66.1122C54.3784 65.6943 54.3939 65.2579 54.3381 64.8154C54.3319 64.7535 54.3164 64.6916 54.3071 64.6297L63.3924 61.0797C63.6498 61.4573 63.966 61.7978 64.335 62.0856C64.856 62.491 65.4482 62.7665 66.0715 62.9089L66.8498 69.2536C65.9257 69.5229 65.135 70.0738 64.5738 70.8073L54.3102 66.1091L54.3071 66.1122ZM70.4498 73.2368C70.611 74.5615 69.6777 75.7747 68.3691 75.9388C67.7428 76.0161 67.1226 75.8459 66.6203 75.456C66.1087 75.0567 65.7831 74.481 65.7056 73.8342C65.5443 72.5095 66.4777 71.2963 67.7862 71.1322C67.8854 71.1199 67.9846 71.1137 68.0839 71.1137C68.6079 71.1137 69.1164 71.287 69.5381 71.6151C70.0498 72.0143 70.3753 72.59 70.4529 73.2368H70.4498ZM67.3428 60.9621C66.7164 61.0395 66.0932 60.8693 65.5939 60.4793C65.0823 60.08 64.7567 59.5044 64.6792 58.8575C64.518 57.5329 65.4513 56.3196 66.7598 56.1556C66.8591 56.1432 66.9583 56.137 67.0575 56.137C67.5815 56.137 68.0901 56.3103 68.5087 56.6384C69.0203 57.0377 69.3459 57.6133 69.4234 58.2602C69.5877 59.5848 68.6544 60.7981 67.3428 60.9621ZM77.1319 47.9972C77.2932 49.3218 76.3598 50.5351 75.0513 50.6991C74.4249 50.7765 73.8048 50.6063 73.3025 50.2163C72.7908 49.817 72.4653 49.2414 72.3877 48.5945C72.2265 47.2668 73.1598 46.0566 74.4684 45.8926C74.5676 45.8802 74.6668 45.874 74.766 45.874C75.2901 45.874 75.7955 46.0473 76.2172 46.3754C76.7288 46.7747 77.0544 47.3503 77.1319 47.9972ZM75.2746 19.4614C75.3738 19.449 75.473 19.4428 75.5722 19.4428C76.0963 19.4428 76.6048 19.6161 77.0265 19.9442C77.5381 20.3434 77.8637 20.9191 77.9412 21.5659C78.1025 22.8906 77.1691 24.1038 75.8606 24.2679C75.2343 24.3453 74.6141 24.175 74.1118 23.7851C73.6001 23.3858 73.2746 22.8101 73.197 22.1633C73.0358 20.8355 73.9691 19.6254 75.2777 19.4614H75.2746ZM53.0854 2.05821C53.1846 2.04583 53.2839 2.03964 53.3831 2.03964C53.9071 2.03964 54.4125 2.21296 54.8343 2.54103C55.3459 2.94028 55.6715 3.51595 55.749 4.1628C55.9133 5.48746 54.98 6.7007 53.6684 6.86473C53.042 6.94211 52.4219 6.77188 51.9195 6.38191C51.4079 5.98266 51.0823 5.40699 51.0048 4.76014C50.8436 3.43548 51.7769 2.22224 53.0854 2.05821ZM31.7304 5.74125L49.1784 5.896C49.225 6.03218 49.2777 6.16836 49.3366 6.30144L29.8451 21.2069C29.7335 21.0986 29.6157 20.9965 29.4916 20.9005C29.0048 20.5229 28.456 20.2568 27.8761 20.1082L28.0777 9.52952C30.0157 9.20145 31.4699 7.63539 31.7304 5.74435V5.74125ZM27.0513 2.73292C27.1505 2.72054 27.2498 2.71435 27.349 2.71435C27.873 2.71435 28.3784 2.88767 28.8001 3.21574C29.3118 3.61499 29.6374 4.19066 29.7149 4.83751C29.8761 6.16217 28.9428 7.37541 27.6343 7.53944C27.0079 7.61682 26.3877 7.44659 25.8854 7.05662C25.3738 6.65737 25.0482 6.0817 24.9707 5.43485C24.8095 4.10709 25.7428 2.89695 27.0513 2.73292ZM4.14279 23.5034C4.24201 23.491 4.34124 23.4848 4.44046 23.4848C4.96449 23.4848 5.46992 23.6582 5.89162 23.9862C6.40325 24.3855 6.72883 24.9612 6.80635 25.608C6.96759 26.9327 6.03426 28.1459 4.72573 28.3099C4.09937 28.3873 3.47922 28.2171 2.97689 27.8271C2.46527 27.4279 2.13968 26.8522 2.06217 26.2053C1.90092 24.8807 2.83426 23.6674 4.14279 23.5034Z" fill="url(#paint0_linear_10_391)"/>
</g>
<defs>
<linearGradient id="paint0_linear_10_391" x1="40.0066" y1="-0.00012207" x2="40.0066" y2="78.0062" gradientUnits="userSpaceOnUse">
<stop stop-color="#EC4893"/>
<stop offset="1" stop-color="#3B82F6"/>
</linearGradient>
<clipPath id="clip0_10_391">
<rect width="80" height="78" fill="white"/>
</clipPath>
</defs>
</svg>
